<?xml version="1.0" encoding="UTF-8"?>
<svg width="255px" height="55px" viewBox="0 0 255 55" version="1.1" xmlns="http://www.w3.org/2000/svg" xmlns:xlink="http://www.w3.org/1999/xlink">
    <title>eikonica</title>
    <g id="Page-1" stroke="none" stroke-width="1" fill="none" fill-rule="evenodd">
        <g id="Artboard" transform="translate(-164.000000, -4790.000000)" fill="#FFFFFF" fill-rule="nonzero">
            <g id="Footer" transform="translate(0.000000, 4694.489379)">
                <g id="eikonica" transform="translate(164.540200, 96.000000)">
                    <path d="M32.8308116,26.2943604 L32.8308116,34.9848693 C32.8308116,36.6189821 31.4938102,37.8817056 29.9339752,37.8817056 L9.21045392,37.8817056 C7.57634113,37.8817056 6.31361761,39.218707 6.31361761,40.778542 L6.31361761,42.8583219 C6.31361761,43.6011004 6.61072902,44.343879 7.130674,44.9381018 L9.65612105,47.4635488 C10.176066,47.9834938 10.9188446,48.2806052 11.735901,48.2806052 L22.2833563,48.2806052 C23.0261348,48.2806052 23.7689133,47.9834938 24.3631362,47.4635488 L26.5914718,45.2352132 C27.7056396,44.1210454 29.562586,44.1210454 30.6767538,45.2352132 L30.6767538,45.2352132 C31.7909216,46.349381 31.7909216,48.2063274 30.6767538,49.3204952 L26.9628611,53.0343879 C26.4429161,53.5543329 25.7001376,53.8514443 24.8830812,53.8514443 L8.9133425,53.8514443 C8.17056396,53.8514443 7.42778542,53.5543329 6.83356259,53.0343879 L0.817056396,47.0178817 C0.297111417,46.4979367 0,45.7551582 0,45.0123796 L0,26.2943604 C0,25.5515818 0.297111417,24.8088033 0.817056396,24.2145805 L6.83356259,18.1980743 C7.35350757,17.6781293 8.09628611,17.3810179 8.9133425,17.3810179 L23.8431912,17.3810179 C24.5859697,17.3810179 25.3287483,17.6781293 25.9229711,18.1980743 L31.9394773,24.2145805 C32.4594223,24.8088033 32.8308116,25.5515818 32.8308116,26.2943604 Z M26.5171939,29.4883081 L26.5171939,28.3741403 C26.5171939,27.6313618 26.2200825,26.8885832 25.7001376,26.2943604 L23.1004127,23.7689133 C22.5804677,23.2489684 21.8376891,22.9518569 21.0206327,22.9518569 L11.735901,22.9518569 C10.9931224,22.9518569 10.2503439,23.2489684 9.65612105,23.7689133 L7.130674,26.2943604 C6.61072902,26.8143054 6.31361761,27.5570839 6.31361761,28.3741403 L6.31361761,29.4883081 C6.31361761,31.1224209 7.65061898,32.3851444 9.21045392,32.3851444 L23.6203576,32.3851444 C25.1801926,32.4594223 26.5171939,31.1224209 26.5171939,29.4883081 Z" id="Shape"></path>
                    <path d="M43.5268226,0.594222834 L43.5268226,0.594222834 C45.2352132,0.594222834 46.6464924,2.00550206 46.6464924,3.71389271 L46.6464924,5.57083906 C46.6464924,7.27922971 45.2352132,8.69050894 43.5268226,8.69050894 L43.5268226,8.69050894 C41.8184319,8.69050894 40.4071527,7.27922971 40.4071527,5.57083906 L40.4071527,3.71389271 C40.3328748,2.00550206 41.7441541,0.594222834 43.5268226,0.594222834 Z M43.5268226,17.3810179 L43.5268226,17.3810179 C45.2352132,17.3810179 46.6464924,18.7922971 46.6464924,20.5006878 L46.6464924,50.7317744 C46.6464924,52.4401651 45.2352132,53.8514443 43.5268226,53.8514443 L43.5268226,53.8514443 C41.8184319,53.8514443 40.4071527,52.4401651 40.4071527,50.7317744 L40.4071527,20.5006878 C40.3328748,18.7922971 41.7441541,17.3810179 43.5268226,17.3810179 Z" id="Shape"></path>
                    <path d="M78.7345254,53.0343879 L67.2957359,41.3727648 C65.5130674,39.5158184 62.3933975,40.8528198 62.3933975,43.3782669 L62.3933975,51.1031637 C62.3933975,52.6629986 61.130674,53.9257221 59.5708391,53.9257221 L58.9766162,53.9257221 C57.4167813,53.9257221 56.1540578,52.6629986 56.1540578,51.1031637 L56.1540578,2.82255846 C56.1540578,1.26272352 57.4167813,0 58.9766162,0 L59.5708391,0 C61.130674,0 62.3933975,1.26272352 62.3933975,2.82255846 L62.3933975,27.3342503 C62.3933975,29.8596974 65.5130674,31.1966988 67.2957359,29.3397524 L78.2145805,18.1980743 C78.7345254,17.6781293 79.477304,17.30674 80.2200825,17.30674 L80.2200825,17.30674 C82.7455296,17.30674 84.0082531,20.352132 82.2255846,22.1348006 L71.5295736,33.127923 C70.4154058,34.2420908 70.4154058,36.0247593 71.5295736,37.1389271 L83.3397524,49.0233838 C85.1224209,50.8060523 83.8596974,53.8514443 81.3342503,53.8514443 L80.8143054,53.8514443 C79.997249,53.9257221 79.3287483,53.6286107 78.7345254,53.0343879 Z" id="Path"></path>
                    <path d="M123.375516,28.0770289 L123.375516,43.2297111 C123.375516,45.1609354 122.632737,46.9436039 121.295736,48.2806052 L117.804677,51.7716644 C116.467675,53.1086657 114.610729,53.8514443 112.753783,53.8514443 L101.314993,53.8514443 C99.3837689,53.8514443 97.6011004,53.1086657 96.264099,51.7716644 L92.7730399,48.2806052 C91.4360385,46.9436039 90.69326,45.0866575 90.69326,43.2297111 L90.69326,28.0770289 C90.69326,26.1458047 91.4360385,24.3631362 92.7730399,23.0261348 L96.264099,19.5350757 C97.6011004,18.1980743 99.4580468,17.4552957 101.314993,17.4552957 L112.753783,17.4552957 C114.685007,17.4552957 116.467675,18.1980743 117.804677,19.5350757 L121.295736,23.0261348 C122.632737,24.3631362 123.375516,26.1458047 123.375516,28.0770289 Z M117.136176,41.1499312 L117.136176,30.1568088 C117.136176,28.2255846 116.393398,26.4429161 115.056396,25.1059147 L115.056396,25.1059147 C113.645117,23.7689133 111.862448,23.0261348 109.931224,23.0261348 L104.063274,23.0261348 C102.13205,23.0261348 100.349381,23.7689133 99.0123796,25.1059147 L99.0123796,25.1059147 C97.6753783,26.4429161 96.9325997,28.2998624 96.9325997,30.1568088 L96.9325997,41.1499312 C96.9325997,43.0811554 97.6753783,44.8638239 99.0123796,46.2008253 L99.0123796,46.2008253 C100.349381,47.5378267 102.206327,48.2806052 104.063274,48.2806052 L109.931224,48.2806052 C111.862448,48.2806052 113.645117,47.5378267 114.982118,46.2008253 L114.982118,46.2008253 C116.393398,44.8638239 117.136176,43.0068776 117.136176,41.1499312 Z" id="Shape"></path>
                    <path d="M163.03989,24.7345254 L163.03989,51.7716644 C163.03989,52.96011 162.074278,53.9257221 160.885832,53.9257221 L158.88033,53.9257221 C157.691884,53.9257221 156.726272,52.96011 156.726272,51.7716644 L156.726272,27.1114168 C156.726272,26.5171939 156.503439,25.997249 156.057772,25.5515818 L154.126547,23.6203576 C153.755158,23.2489684 153.160935,22.9518569 152.566713,22.9518569 L145.584594,22.9518569 C144.990371,22.9518569 144.470426,23.1746905 144.024759,23.6203576 L138.305365,29.3397524 C137.933975,29.7111417 137.636864,30.3053645 137.636864,30.8995873 L137.636864,51.8459422 C137.636864,53.0343879 136.671252,54 135.482806,54 L133.477304,54 C132.288858,54 131.323246,53.0343879 131.323246,51.8459422 L131.323246,19.5350757 C131.323246,18.34663 132.288858,17.3810179 133.477304,17.3810179 L134.962861,17.3810179 C136.151307,17.3810179 137.042641,18.2723521 137.116919,19.4607978 L137.116919,19.4607978 C137.191197,21.3177442 139.49381,22.2090784 140.830812,20.872077 L143.727648,17.9752407 C144.099037,17.6038514 144.69326,17.30674 145.287483,17.30674 L155.612105,17.30674 C156.206327,17.30674 156.726272,17.5295736 157.171939,17.9752407 L162.371389,23.1746905 C162.817056,23.6203576 163.03989,24.1403026 163.03989,24.7345254 Z" id="Path"></path>
                    <path d="M175.072902,0.594222834 L175.072902,0.594222834 C176.781293,0.594222834 178.192572,2.00550206 178.192572,3.71389271 L178.192572,5.57083906 C178.192572,7.27922971 176.781293,8.69050894 175.072902,8.69050894 L175.072902,8.69050894 C173.364512,8.69050894 171.953232,7.27922971 171.953232,5.57083906 L171.953232,3.71389271 C171.953232,2.00550206 173.364512,0.594222834 175.072902,0.594222834 Z M175.072902,17.3810179 L175.072902,17.3810179 C176.781293,17.3810179 178.192572,18.7922971 178.192572,20.5006878 L178.192572,50.7317744 C178.192572,52.4401651 176.781293,53.8514443 175.072902,53.8514443 L175.072902,53.8514443 C173.364512,53.8514443 171.953232,52.4401651 171.953232,50.7317744 L171.953232,20.5006878 C171.953232,18.7922971 173.364512,17.3810179 175.072902,17.3810179 Z" id="Shape"></path>
                    <path d="M215.851444,49.394773 L212.137552,53.1086657 C211.617607,53.6286107 210.874828,53.9257221 210.057772,53.9257221 L195.202201,53.9257221 C194.459422,53.9257221 193.716644,53.6286107 193.122421,53.1086657 L187.105915,47.0921596 C186.58597,46.5722146 186.288858,45.829436 186.288858,45.0123796 L186.288858,26.2943604 C186.288858,25.5515818 186.58597,24.8088033 187.105915,24.2145805 L193.122421,18.1980743 C193.642366,17.6781293 194.385144,17.3810179 195.202201,17.3810179 L209.686382,17.3810179 C210.429161,17.3810179 211.171939,17.6781293 211.766162,18.1980743 L215.480055,21.911967 C216.594223,23.0261348 216.594223,24.8830812 215.480055,25.997249 L215.480055,25.997249 C214.365887,27.1114168 212.508941,27.1114168 211.394773,25.997249 L209.240715,23.8431912 C208.72077,23.3232462 207.977992,23.0261348 207.160935,23.0261348 L198.024759,23.0261348 C197.281981,23.0261348 196.539202,23.3232462 195.944979,23.8431912 L193.49381,26.2943604 C192.973865,26.8143054 192.676754,27.5570839 192.676754,28.3741403 L192.676754,42.8583219 C192.676754,43.6011004 192.973865,44.343879 193.49381,44.9381018 L195.944979,47.389271 C196.464924,47.909216 197.207703,48.2063274 198.024759,48.2063274 L207.532325,48.2063274 C208.275103,48.2063274 209.017882,47.909216 209.612105,47.389271 L211.766162,45.2352132 C212.88033,44.1210454 214.737276,44.1210454 215.851444,45.2352132 L215.851444,45.2352132 C216.965612,46.4236589 216.965612,48.2806052 215.851444,49.394773 Z" id="Path"></path>
                    <path d="M253.881706,24.7345254 L253.881706,51.7716644 C253.881706,52.96011 252.916094,53.9257221 251.727648,53.9257221 L250.242091,53.9257221 C249.053645,53.9257221 248.162311,53.0343879 248.088033,51.8459422 L248.088033,51.8459422 C248.013755,49.9889959 245.711142,49.0976616 244.37414,50.434663 L241.477304,53.3314993 C241.105915,53.7028886 240.511692,54 239.917469,54 L228.255846,54 C227.661623,54 227.141678,53.7771664 226.696011,53.3314993 L221.719395,48.3548831 C221.348006,47.9834938 221.050894,47.389271 221.050894,46.7950481 L221.050894,40.0357634 C221.050894,39.4415406 221.273728,38.9215956 221.719395,38.4759285 L225.953232,34.2420908 C226.324622,33.8707015 226.844567,33.647868 227.364512,33.647868 L245.41403,32.3851444 C246.528198,32.3108666 247.419532,31.3452545 247.419532,30.2310867 L247.419532,27.0371389 C247.419532,26.4429161 247.196699,25.9229711 246.751032,25.477304 L244.74553,23.4718019 C244.37414,23.1004127 243.779917,22.8033012 243.185695,22.8033012 L231.895461,22.8033012 C231.301238,22.8033012 230.781293,23.0261348 230.335626,23.4718019 L227.587345,26.2200825 C226.770289,27.0371389 225.35901,27.0371389 224.541953,26.2200825 L223.502063,25.1801926 C222.685007,24.3631362 222.685007,22.9518569 223.502063,22.1348006 L227.661623,17.9752407 C228.033012,17.6038514 228.627235,17.30674 229.221458,17.30674 L246.379642,17.30674 C246.973865,17.30674 247.49381,17.5295736 247.939477,17.9752407 L253.138927,23.1746905 C253.658872,23.6203576 253.881706,24.1403026 253.881706,24.7345254 Z M247.568088,40.4071527 L247.568088,40.1100413 C247.568088,38.8473177 246.528198,37.8817056 245.265475,37.9559835 L230.484182,38.9958735 C229.964237,38.9958735 229.444292,39.218707 229.14718,39.5900963 L228.181568,40.5557084 C227.810179,40.9270977 227.513067,41.5213205 227.513067,42.1155433 L227.513067,44.6409904 C227.513067,45.2352132 227.735901,45.7551582 228.181568,46.2008253 L229.667125,47.6863824 C230.038514,48.0577717 230.632737,48.3548831 231.22696,48.3548831 L239.694635,48.3548831 C240.288858,48.3548831 240.808803,48.1320495 241.25447,47.6863824 L247.048143,41.8927098 C247.345254,41.5955983 247.568088,41.0013755 247.568088,40.4071527 Z" id="Shape"></path>
                </g>
            </g>
        </g>
    </g>
</svg>