<?xml version="1.0" encoding="UTF-8"?>
<svg width="104px" height="22px" viewBox="0 0 104 22" version="1.1" xmlns="http://www.w3.org/2000/svg" xmlns:xlink="http://www.w3.org/1999/xlink">
    <title>eikonica</title>
    <g id="Page-1" stroke="none" stroke-width="1" fill="none" fill-rule="evenodd">
        <g id="Artboard" transform="translate(-48.000000, -24.000000)" fill="#EDEEF0" fill-rule="nonzero">
            <g id="Navigation" transform="translate(48.283356, 22.500000)">
                <g id="eikonica" transform="translate(0.000000, 1.500000)">
                    <path d="M13.3755158,10.7125172 L13.3755158,14.2530949 C13.3755158,14.9188446 12.8308116,15.4332875 12.1953232,15.4332875 L3.75240715,15.4332875 C3.0866575,15.4332875 2.57221458,15.9779917 2.57221458,16.6134801 L2.57221458,17.4607978 C2.57221458,17.7634113 2.69325997,18.0660248 2.90508941,18.3081155 L3.93397524,19.3370014 C4.14580468,19.5488308 4.44841816,19.6698762 4.78129298,19.6698762 L9.0784044,19.6698762 C9.38101788,19.6698762 9.68363136,19.5488308 9.92572215,19.3370014 L10.8335626,18.4291609 C11.2874828,17.9752407 12.0440165,17.9752407 12.4979367,18.4291609 L12.4979367,18.4291609 C12.9518569,18.8830812 12.9518569,19.6396149 12.4979367,20.0935351 L10.9848693,21.6066025 C10.7730399,21.8184319 10.4704264,21.9394773 10.1375516,21.9394773 L3.63136176,21.9394773 C3.32874828,21.9394773 3.0261348,21.8184319 2.78404402,21.6066025 L0.332874828,19.1554333 C0.121045392,18.9436039 0,18.6409904 0,18.3383769 L0,10.7125172 C0,10.4099037 0.121045392,10.1072902 0.332874828,9.86519945 L2.78404402,7.41403026 C2.99587345,7.20220083 3.29848693,7.08115543 3.63136176,7.08115543 L9.71389271,7.08115543 C10.0165062,7.08115543 10.3191197,7.20220083 10.5612105,7.41403026 L13.0123796,9.86519945 C13.2242091,10.1072902 13.3755158,10.4099037 13.3755158,10.7125172 Z M10.8033012,12.0137552 L10.8033012,11.5598349 C10.8033012,11.2572215 10.6822558,10.954608 10.4704264,10.7125172 L9.41127923,9.68363136 C9.19944979,9.47180193 8.89683631,9.35075653 8.56396149,9.35075653 L4.78129298,9.35075653 C4.4786795,9.35075653 4.17606602,9.47180193 3.93397524,9.68363136 L2.90508941,10.7125172 C2.69325997,10.9243466 2.57221458,11.2269601 2.57221458,11.5598349 L2.57221458,12.0137552 C2.57221458,12.6795048 3.11691884,13.1939477 3.75240715,13.1939477 L9.62310867,13.1939477 C10.258597,13.2242091 10.8033012,12.6795048 10.8033012,12.0137552 Z" id="Shape"></path>
                    <path d="M17.7331499,0.242090784 L17.7331499,0.242090784 C18.4291609,0.242090784 19.0041265,0.817056396 19.0041265,1.5130674 L19.0041265,2.2696011 C19.0041265,2.9656121 18.4291609,3.54057772 17.7331499,3.54057772 L17.7331499,3.54057772 C17.0371389,3.54057772 16.4621733,2.9656121 16.4621733,2.2696011 L16.4621733,1.5130674 C16.431912,0.817056396 17.0068776,0.242090784 17.7331499,0.242090784 Z M17.7331499,7.08115543 L17.7331499,7.08115543 C18.4291609,7.08115543 19.0041265,7.65612105 19.0041265,8.35213205 L19.0041265,20.6685007 C19.0041265,21.3645117 18.4291609,21.9394773 17.7331499,21.9394773 L17.7331499,21.9394773 C17.0371389,21.9394773 16.4621733,21.3645117 16.4621733,20.6685007 L16.4621733,8.35213205 C16.431912,7.65612105 17.0068776,7.08115543 17.7331499,7.08115543 Z" id="Shape"></path>
                    <path d="M32.0770289,21.6066025 L27.4167813,16.8555708 C26.6905089,16.0990371 25.4195323,16.6437414 25.4195323,17.6726272 L25.4195323,20.8198074 C25.4195323,21.4552957 24.9050894,21.9697387 24.2696011,21.9697387 L24.0275103,21.9697387 C23.392022,21.9697387 22.8775791,21.4552957 22.8775791,20.8198074 L22.8775791,1.14993122 C22.8775791,0.514442916 23.392022,0 24.0275103,0 L24.2696011,0 C24.9050894,0 25.4195323,0.514442916 25.4195323,1.14993122 L25.4195323,11.1361761 C25.4195323,12.1650619 26.6905089,12.7097662 27.4167813,11.9532325 L31.8651994,7.41403026 C32.0770289,7.20220083 32.3796424,7.05089409 32.6822558,7.05089409 L32.6822558,7.05089409 C33.7111417,7.05089409 34.2255846,8.29160935 33.4993122,9.01788171 L29.1416781,13.4965612 C28.6877579,13.9504814 28.6877579,14.6767538 29.1416781,15.130674 L33.9532325,19.9724897 C34.6795048,20.698762 34.1650619,21.9394773 33.1361761,21.9394773 L32.9243466,21.9394773 C32.5914718,21.9697387 32.3191197,21.8486933 32.0770289,21.6066025 Z" id="Path"></path>
                    <path d="M50.264099,11.4387895 L50.264099,17.6121045 C50.264099,18.3988996 49.9614856,19.1251719 49.4167813,19.6698762 L47.9944979,21.0921596 C47.4497937,21.6368638 46.69326,21.9394773 45.9367263,21.9394773 L41.2764787,21.9394773 C40.4896836,21.9394773 39.7634113,21.6368638 39.218707,21.0921596 L37.7964237,19.6698762 C37.2517194,19.1251719 36.9491059,18.3686382 36.9491059,17.6121045 L36.9491059,11.4387895 C36.9491059,10.6519945 37.2517194,9.92572215 37.7964237,9.38101788 L39.218707,7.95873453 C39.7634113,7.41403026 40.519945,7.11141678 41.2764787,7.11141678 L45.9367263,7.11141678 C46.7235213,7.11141678 47.4497937,7.41403026 47.9944979,7.95873453 L49.4167813,9.38101788 C49.9614856,9.92572215 50.264099,10.6519945 50.264099,11.4387895 Z M47.7221458,16.7647868 L47.7221458,12.2861073 C47.7221458,11.4993122 47.4195323,10.7730399 46.8748281,10.2283356 L46.8748281,10.2283356 C46.2998624,9.68363136 45.5735901,9.38101788 44.786795,9.38101788 L42.3961486,9.38101788 C41.6093535,9.38101788 40.8830812,9.68363136 40.3383769,10.2283356 L40.3383769,10.2283356 C39.7936726,10.7730399 39.4910591,11.5295736 39.4910591,12.2861073 L39.4910591,16.7647868 C39.4910591,17.5515818 39.7936726,18.2778542 40.3383769,18.8225585 L40.3383769,18.8225585 C40.8830812,19.3672627 41.6396149,19.6698762 42.3961486,19.6698762 L44.786795,19.6698762 C45.5735901,19.6698762 46.2998624,19.3672627 46.8445667,18.8225585 L46.8445667,18.8225585 C47.4195323,18.2778542 47.7221458,17.5213205 47.7221458,16.7647868 Z" id="Shape"></path>
                    <path d="M66.4236589,10.0770289 L66.4236589,21.0921596 C66.4236589,21.5763411 66.0302613,21.9697387 65.5460798,21.9697387 L64.7290234,21.9697387 C64.2448418,21.9697387 63.8514443,21.5763411 63.8514443,21.0921596 L63.8514443,11.045392 C63.8514443,10.8033012 63.7606602,10.5914718 63.5790922,10.4099037 L62.7922971,9.62310867 C62.6409904,9.47180193 62.3988996,9.35075653 62.1568088,9.35075653 L59.3122421,9.35075653 C59.0701513,9.35075653 58.8583219,9.44154058 58.6767538,9.62310867 L56.34663,11.9532325 C56.1953232,12.1045392 56.0742779,12.34663 56.0742779,12.5887208 L56.0742779,21.1224209 C56.0742779,21.6066025 55.6808803,22 55.1966988,22 L54.3796424,22 C53.8954608,22 53.5020633,21.6066025 53.5020633,21.1224209 L53.5020633,7.95873453 C53.5020633,7.47455296 53.8954608,7.08115543 54.3796424,7.08115543 L54.9848693,7.08115543 C55.4690509,7.08115543 55.8321871,7.44429161 55.8624484,7.92847318 L55.8624484,7.92847318 C55.8927098,8.68500688 56.8308116,9.04814305 57.3755158,8.50343879 L58.5557084,7.32324622 C58.7070151,7.17193948 58.9491059,7.05089409 59.1911967,7.05089409 L63.3975241,7.05089409 C63.6396149,7.05089409 63.8514443,7.14167813 64.0330124,7.32324622 L66.1513067,9.44154058 C66.3328748,9.62310867 66.4236589,9.8349381 66.4236589,10.0770289 Z" id="Path"></path>
                    <path d="M71.3259972,0.242090784 L71.3259972,0.242090784 C72.0220083,0.242090784 72.5969739,0.817056396 72.5969739,1.5130674 L72.5969739,2.2696011 C72.5969739,2.9656121 72.0220083,3.54057772 71.3259972,3.54057772 L71.3259972,3.54057772 C70.6299862,3.54057772 70.0550206,2.9656121 70.0550206,2.2696011 L70.0550206,1.5130674 C70.0550206,0.817056396 70.6299862,0.242090784 71.3259972,0.242090784 Z M71.3259972,7.08115543 L71.3259972,7.08115543 C72.0220083,7.08115543 72.5969739,7.65612105 72.5969739,8.35213205 L72.5969739,20.6685007 C72.5969739,21.3645117 72.0220083,21.9394773 71.3259972,21.9394773 L71.3259972,21.9394773 C70.6299862,21.9394773 70.0550206,21.3645117 70.0550206,20.6685007 L70.0550206,8.35213205 C70.0550206,7.65612105 70.6299862,7.08115543 71.3259972,7.08115543 Z" id="Shape"></path>
                    <path d="M87.9394773,20.1237964 L86.4264099,21.6368638 C86.2145805,21.8486933 85.911967,21.9697387 85.5790922,21.9697387 L79.5268226,21.9697387 C79.2242091,21.9697387 78.9215956,21.8486933 78.6795048,21.6368638 L76.2283356,19.1856946 C76.0165062,18.9738652 75.8954608,18.6712517 75.8954608,18.3383769 L75.8954608,10.7125172 C75.8954608,10.4099037 76.0165062,10.1072902 76.2283356,9.86519945 L78.6795048,7.41403026 C78.8913343,7.20220083 79.1939477,7.08115543 79.5268226,7.08115543 L85.4277854,7.08115543 C85.7303989,7.08115543 86.0330124,7.20220083 86.2751032,7.41403026 L87.7881706,8.92709766 C88.2420908,9.38101788 88.2420908,10.1375516 87.7881706,10.5914718 L87.7881706,10.5914718 C87.3342503,11.045392 86.5777166,11.045392 86.1237964,10.5914718 L85.2462173,9.71389271 C85.0343879,9.50206327 84.7317744,9.38101788 84.3988996,9.38101788 L80.6767538,9.38101788 C80.3741403,9.38101788 80.0715268,9.50206327 79.829436,9.71389271 L78.8308116,10.7125172 C78.6189821,10.9243466 78.4979367,11.2269601 78.4979367,11.5598349 L78.4979367,17.4607978 C78.4979367,17.7634113 78.6189821,18.0660248 78.8308116,18.3081155 L79.829436,19.30674 C80.0412655,19.5185695 80.343879,19.6396149 80.6767538,19.6396149 L84.5502063,19.6396149 C84.8528198,19.6396149 85.1554333,19.5185695 85.3975241,19.30674 L86.2751032,18.4291609 C86.7290234,17.9752407 87.4855571,17.9752407 87.9394773,18.4291609 L87.9394773,18.4291609 C88.3933975,18.9133425 88.3933975,19.6698762 87.9394773,20.1237964 Z" id="Path"></path>
                    <path d="M103.433287,10.0770289 L103.433287,21.0921596 C103.433287,21.5763411 103.03989,21.9697387 102.555708,21.9697387 L101.950481,21.9697387 C101.4663,21.9697387 101.103164,21.6066025 101.072902,21.1224209 L101.072902,21.1224209 C101.042641,20.3658872 100.104539,20.002751 99.5598349,20.5474553 L98.3796424,21.7276479 C98.2283356,21.8789546 97.9862448,22 97.7441541,22 L92.9931224,22 C92.7510316,22 92.5392022,21.909216 92.3576341,21.7276479 L90.3301238,19.7001376 C90.1788171,19.5488308 90.0577717,19.30674 90.0577717,19.0646492 L90.0577717,16.3108666 C90.0577717,16.0687758 90.1485557,15.8569464 90.3301238,15.6753783 L92.0550206,13.9504814 C92.2063274,13.7991747 92.4181568,13.7083906 92.6299862,13.7083906 L99.9834938,13.1939477 C100.437414,13.1636864 100.80055,12.7702889 100.80055,12.3163686 L100.80055,11.0151307 C100.80055,10.7730399 100.709766,10.5612105 100.528198,10.3796424 L99.7111417,9.56258597 C99.5598349,9.41127923 99.3177442,9.29023384 99.0756534,9.29023384 L94.4759285,9.29023384 C94.2338377,9.29023384 94.0220083,9.38101788 93.8404402,9.56258597 L92.7207703,10.6822558 C92.3878955,11.0151307 91.8129298,11.0151307 91.480055,10.6822558 L91.0563961,10.258597 C90.7235213,9.92572215 90.7235213,9.35075653 91.0563961,9.01788171 L92.7510316,7.32324622 C92.9023384,7.17193948 93.1444292,7.05089409 93.3865199,7.05089409 L100.376891,7.05089409 C100.618982,7.05089409 100.830812,7.14167813 101.01238,7.32324622 L103.130674,9.44154058 C103.342503,9.62310867 103.433287,9.8349381 103.433287,10.0770289 Z M100.861073,16.4621733 L100.861073,16.3411279 C100.861073,15.826685 100.437414,15.4332875 99.9229711,15.4635488 L93.9009629,15.8872077 C93.6891334,15.8872077 93.477304,15.9779917 93.3562586,16.1292985 L92.9628611,16.522696 C92.8115543,16.6740028 92.6905089,16.9160935 92.6905089,17.1581843 L92.6905089,18.1870702 C92.6905089,18.4291609 92.781293,18.6409904 92.9628611,18.8225585 L93.568088,19.4277854 C93.7193948,19.5790922 93.9614856,19.7001376 94.2035763,19.7001376 L97.65337,19.7001376 C97.8954608,19.7001376 98.1072902,19.6093535 98.2888583,19.4277854 L100.649243,17.0674003 C100.770289,16.9463549 100.861073,16.7042641 100.861073,16.4621733 Z" id="Shape"></path>
                </g>
            </g>
        </g>
    </g>
</svg>