<?xml version="1.0" encoding="UTF-8"?>
<svg width="130px" height="55px" viewBox="0 0 130 55" version="1.1" xmlns="http://www.w3.org/2000/svg" xmlns:xlink="http://www.w3.org/1999/xlink">
    <title>Group</title>
    <defs>
        <polygon id="path-1" points="0 54 129.409692 54 129.409692 0 0 0"></polygon>
        <polygon id="path-3" points="0 54 129.409692 54 129.409692 0 0 0"></polygon>
    </defs>
    <g id="Page-1" stroke="none" stroke-width="1" fill="none" fill-rule="evenodd">
        <g id="Artboard" transform="translate(-164.000000, -4958.000000)">
            <g id="Footer" transform="translate(0.000000, 4694.489379)">
                <g id="Partenaires" transform="translate(164.540200, 256.000000)">
                    <g id="Group" transform="translate(0.000000, 8.000000)">
                        <path d="M6.97797357,33.6211454 C6.89867841,33.2246696 6.74008811,32.9867841 6.18502203,32.9867841 C5.55066079,32.9867841 5.31277533,33.4625551 5.31277533,34.0176211 C5.31277533,34.5726872 5.55066079,35.0484581 6.26431718,35.0484581 C6.74008811,35.0484581 6.89867841,34.8105727 6.97797357,34.4933921 L7.77092511,34.4933921 C7.69162996,35.2070485 7.13656388,35.7621145 6.18502203,35.7621145 C5.07488987,35.7621145 4.51982379,34.8898678 4.51982379,34.0176211 C4.51982379,33.1453744 5.07488987,32.2731278 6.18502203,32.2731278 C7.29515419,32.2731278 7.69162996,32.907489 7.77092511,33.6211454 C7.77092511,33.6211454 6.97797357,33.6211454 6.97797357,33.6211454 Z M11.1806167,34.0969163 C11.1806167,33.5418502 10.784141,33.0660793 10.1497797,33.0660793 C9.59471366,33.0660793 9.19823789,33.5418502 9.19823789,34.0969163 C9.19823789,34.6519824 9.59471366,35.1277533 10.1497797,35.1277533 C10.784141,35.1277533 11.1806167,34.6519824 11.1806167,34.0969163 M8.40528634,34.0969163 C8.40528634,33.1453744 9.11894273,32.3524229 10.1497797,32.3524229 C11.2599119,32.3524229 11.8942731,33.1453744 11.8942731,34.0969163 C11.8942731,35.0484581 11.1806167,35.8414097 10.1497797,35.8414097 C9.11894273,35.8414097 8.40528634,35.0484581 8.40528634,34.0969163" id="Shape" fill="#FFFFFF"></path>
                        <g id="Clipped">
                            <mask id="mask-2" fill="white">
                                <use xlink:href="#path-1"></use>
                            </mask>
                            <g id="a_00000151503309647305106420000010144425527753412756_"></g>
                            <path d="M12.845815,35.7621145 L13.6387665,35.7621145 L13.6387665,30.6872247 L12.845815,30.6872247 L12.845815,35.7621145 Z M15.3039648,33.7004405 L16.969163,33.7004405 C16.969163,33.2246696 16.6519824,32.907489 16.1762115,32.907489 C15.7004405,32.907489 15.3039648,33.1453744 15.3039648,33.7004405 Z M15.3039648,34.3348018 C15.3039648,34.8105727 15.5418502,35.2070485 16.1762115,35.2070485 C16.6519824,35.2070485 16.8105727,34.969163 16.8898678,34.7312775 L17.6828194,34.7312775 C17.6035242,35.2863436 17.0484581,35.8414097 16.1762115,35.8414097 C15.0660793,35.8414097 14.5110132,35.0484581 14.5110132,34.0969163 C14.5110132,33.0660793 15.1453744,32.3524229 16.1762115,32.3524229 C17.0484581,32.3524229 17.7621145,32.9867841 17.7621145,33.8590308 C17.7621145,33.938326 17.7621145,34.0969163 17.7621145,34.3348018 C17.6828194,34.3348018 15.3039648,34.3348018 15.3039648,34.3348018 Z M21.0132159,34.0969163 C21.0132159,34.6519824 21.4096916,35.1277533 22.0440529,35.1277533 C22.5991189,35.1277533 22.9955947,34.6519824 22.9955947,34.0969163 C22.9955947,33.5418502 22.5991189,33.0660793 22.0440529,33.0660793 C21.4096916,32.9867841 21.0132159,33.4625551 21.0132159,34.0969163 Z M21.0132159,32.8281938 C21.2511013,32.5110132 21.6475771,32.2731278 22.0440529,32.2731278 C23.0748899,32.2731278 23.7885463,33.0660793 23.7885463,34.0176211 C23.7885463,34.969163 23.0748899,35.7621145 22.0440529,35.7621145 C21.6475771,35.7621145 21.2511013,35.5242291 21.0132159,35.2070485 L21.0132159,37.3480176 L20.2202643,37.3480176 L20.2202643,32.2731278 L21.0132159,32.2731278 L21.0132159,32.8281938 L21.0132159,32.8281938 Z M26.8017621,33.1453744 C26.722467,33.1453744 26.5638767,33.1453744 26.4845815,33.1453744 C25.8502203,33.1453744 25.4537445,33.5418502 25.4537445,34.3348018 L25.4537445,35.7621145 L24.660793,35.7621145 L24.660793,32.4317181 L25.4537445,32.4317181 L25.4537445,32.9867841 C25.6123348,32.6696035 26.0088106,32.4317181 26.4845815,32.4317181 C26.6431718,32.4317181 26.722467,32.4317181 26.8017621,32.5110132 L26.8017621,33.1453744 L26.8017621,33.1453744 Z M29.9735683,34.0969163 C29.9735683,33.5418502 29.5770925,33.0660793 28.9427313,33.0660793 C28.3876652,33.0660793 27.9911894,33.5418502 27.9911894,34.0969163 C27.9911894,34.6519824 28.3876652,35.1277533 28.9427313,35.1277533 C29.5770925,35.1277533 29.9735683,34.6519824 29.9735683,34.0969163 M27.277533,34.0969163 C27.277533,33.1453744 27.9911894,32.3524229 29.0220264,32.3524229 C30.1321586,32.3524229 30.7665198,33.1453744 30.7665198,34.0969163 C30.7665198,35.0484581 30.0528634,35.8414097 29.0220264,35.8414097 C27.9118943,35.8414097 27.277533,35.0484581 27.277533,34.0969163 M33.6211454,31.4008811 C33.5418502,31.4008811 33.3832599,31.3215859 33.3039648,31.3215859 C33.0660793,31.3215859 32.7488987,31.3215859 32.7488987,31.876652 L32.7488987,32.3524229 L33.6211454,32.3524229 L33.6211454,32.9867841 L32.7488987,32.9867841 L32.7488987,35.6828194 L31.9559471,35.6828194 L31.9559471,32.9867841 L31.2422907,32.9867841 L31.2422907,32.3524229 L31.9559471,32.3524229 L31.9559471,31.9559471 C31.9559471,30.6872247 32.7488987,30.6079295 33.1453744,30.6079295 C33.3832599,30.6079295 33.5418502,30.6872247 33.6211454,30.6872247 C33.6211454,30.7665198 33.6211454,31.4008811 33.6211454,31.4008811 Z M34.8898678,33.7004405 L36.5550661,33.7004405 C36.5550661,33.2246696 36.2378855,32.907489 35.7621145,32.907489 C35.2863436,32.907489 34.8898678,33.1453744 34.8898678,33.7004405 Z M34.8898678,34.3348018 C34.8898678,34.8105727 35.1277533,35.2070485 35.7621145,35.2070485 C36.2378855,35.2070485 36.3964758,34.969163 36.4757709,34.7312775 L37.2687225,34.7312775 C37.1894273,35.2863436 36.6343612,35.8414097 35.7621145,35.8414097 C34.6519824,35.8414097 34.0969163,35.0484581 34.0969163,34.0969163 C34.0969163,33.0660793 34.7312775,32.3524229 35.7621145,32.3524229 C36.6343612,32.3524229 37.3480176,32.9867841 37.3480176,33.8590308 C37.3480176,33.938326 37.3480176,34.0969163 37.3480176,34.3348018 L34.8898678,34.3348018 L34.8898678,34.3348018 Z M40.6784141,34.8105727 C40.6784141,35.5242291 40.0440529,35.8414097 39.3303965,35.8414097 C38.6167401,35.8414097 37.9823789,35.4449339 37.9823789,34.6519824 L38.7753304,34.6519824 C38.7753304,35.1277533 39.0132159,35.2863436 39.4096916,35.2863436 C39.7268722,35.2863436 39.9647577,35.2070485 39.9647577,34.8898678 C39.9647577,34.5726872 39.6475771,34.5726872 38.9339207,34.2555066 C38.4581498,34.0969163 38.1409692,33.938326 38.1409692,33.3039648 C38.1409692,32.6696035 38.6960352,32.3524229 39.4096916,32.3524229 C40.123348,32.3524229 40.6784141,32.8281938 40.6784141,33.4625551 L39.8854626,33.4625551 C39.8854626,33.1453744 39.7268722,32.907489 39.3303965,32.907489 C39.092511,32.907489 38.8546256,33.0660793 38.8546256,33.3039648 C38.8546256,33.6211454 39.1718062,33.6211454 39.8061674,33.8590308 C40.2819383,34.0176211 40.6784141,34.1762115 40.6784141,34.8105727 M44.0881057,34.8105727 C44.0881057,35.5242291 43.4537445,35.8414097 42.7400881,35.8414097 C42.0264317,35.8414097 41.3920705,35.4449339 41.3920705,34.6519824 L42.185022,34.6519824 C42.185022,35.1277533 42.4229075,35.2863436 42.8193833,35.2863436 C43.1365639,35.2863436 43.3744493,35.2070485 43.3744493,34.8898678 C43.3744493,34.5726872 43.0572687,34.5726872 42.3436123,34.2555066 C41.8678414,34.0969163 41.5506608,33.938326 41.5506608,33.3039648 C41.5506608,32.6696035 42.1057269,32.3524229 42.8193833,32.3524229 C43.5330396,32.3524229 44.0881057,32.8281938 44.0881057,33.4625551 L43.2951542,33.4625551 C43.2951542,33.1453744 43.1365639,32.907489 42.7400881,32.907489 C42.5022026,32.907489 42.2643172,33.0660793 42.2643172,33.3039648 C42.2643172,33.6211454 42.5814978,33.6211454 43.215859,33.8590308 C43.69163,34.0176211 44.0881057,34.1762115 44.0881057,34.8105727 M45.0396476,35.7621145 L45.8325991,35.7621145 L45.8325991,32.4317181 L45.0396476,32.4317181 L45.0396476,35.7621145 L45.0396476,35.7621145 Z M45.4361233,30.6079295 C45.753304,30.6079295 45.9911894,30.845815 45.9911894,31.1629956 C45.9911894,31.4801762 45.753304,31.7180617 45.4361233,31.7180617 L45.4361233,31.7180617 C45.1189427,31.7180617 44.8810573,31.4801762 44.8810573,31.1629956 C44.8810573,30.845815 45.1189427,30.6079295 45.4361233,30.6079295 Z M49.4008811,34.0969163 C49.4008811,33.5418502 49.0044053,33.0660793 48.3700441,33.0660793 C47.814978,33.0660793 47.4185022,33.5418502 47.4185022,34.0969163 C47.4185022,34.6519824 47.814978,35.1277533 48.3700441,35.1277533 C49.0044053,35.1277533 49.4008811,34.6519824 49.4008811,34.0969163 M46.6255507,34.0969163 C46.6255507,33.1453744 47.339207,32.3524229 48.3700441,32.3524229 C49.4801762,32.3524229 50.1145374,33.1453744 50.1145374,34.0969163 C50.1145374,35.0484581 49.4008811,35.8414097 48.3700441,35.8414097 C47.339207,35.8414097 46.6255507,35.0484581 46.6255507,34.0969163 M51.0660793,32.3524229 L51.8590308,32.3524229 L51.8590308,32.8281938 C52.0969163,32.4317181 52.4933921,32.2731278 52.969163,32.2731278 C53.4449339,32.2731278 53.7621145,32.4317181 54,32.7488987 C54.1585903,32.9867841 54.2378855,33.3039648 54.2378855,33.7797357 L54.2378855,35.7621145 L53.4449339,35.7621145 L53.4449339,34.0176211 C53.4449339,33.4625551 53.2863436,32.9867841 52.7312775,32.9867841 C52.1762115,32.9867841 51.938326,33.4625551 51.938326,34.0176211 L51.938326,35.7621145 L51.1453744,35.7621145 L51.1453744,32.3524229 L51.0660793,32.3524229 Z M55.2687225,32.3524229 L56.061674,32.3524229 L56.061674,32.8281938 C56.2995595,32.4317181 56.6960352,32.2731278 57.1718062,32.2731278 C57.6475771,32.2731278 57.9647577,32.4317181 58.2026432,32.7488987 C58.3612335,32.9867841 58.4405286,33.3039648 58.4405286,33.7797357 L58.4405286,35.7621145 L57.6475771,35.7621145 L57.6475771,34.0176211 C57.6475771,33.4625551 57.4889868,32.9867841 56.9339207,32.9867841 C56.3788546,32.9867841 56.1409692,33.4625551 56.1409692,34.0176211 L56.1409692,35.7621145 L55.3480176,35.7621145 L55.3480176,32.3524229 L55.2687225,32.3524229 Z M60.0264317,33.7004405 L61.69163,33.7004405 C61.69163,33.2246696 61.3744493,32.907489 60.8986784,32.907489 C60.4229075,32.907489 60.0264317,33.1453744 60.0264317,33.7004405 Z M60.0264317,34.3348018 C60.0264317,34.8105727 60.2643172,35.2070485 60.8986784,35.2070485 C61.3744493,35.2070485 61.5330396,34.969163 61.6123348,34.7312775 L62.4052863,34.7312775 C62.3259912,35.2863436 61.7709251,35.8414097 60.8986784,35.8414097 C59.7885463,35.8414097 59.2334802,35.0484581 59.2334802,34.0969163 C59.2334802,33.0660793 59.8678414,32.3524229 60.8986784,32.3524229 C61.7709251,32.3524229 62.4845815,32.9867841 62.4845815,33.8590308 C62.4845815,33.938326 62.4845815,34.0969163 62.4845815,34.3348018 L60.0264317,34.3348018 L60.0264317,34.3348018 Z M63.3568282,35.7621145 L64.1497797,35.7621145 L64.1497797,30.6872247 L63.3568282,30.6872247 L63.3568282,35.7621145 Z M65.2599119,35.7621145 L66.0528634,35.7621145 L66.0528634,30.6872247 L65.2599119,30.6872247 L65.2599119,35.7621145 Z M67.7180617,33.7004405 L69.3832599,33.7004405 C69.3832599,33.2246696 69.0660793,32.907489 68.5903084,32.907489 C68.1145374,32.907489 67.7180617,33.1453744 67.7180617,33.7004405 Z M67.7180617,34.3348018 C67.7180617,34.8105727 67.9559471,35.2070485 68.5903084,35.2070485 C69.0660793,35.2070485 69.2246696,34.969163 69.3039648,34.7312775 L70.0969163,34.7312775 C70.0176211,35.2863436 69.4625551,35.8414097 68.5903084,35.8414097 C67.4801762,35.8414097 66.9251101,35.0484581 66.9251101,34.0969163 C66.9251101,33.0660793 67.5594714,32.3524229 68.5903084,32.3524229 C69.4625551,32.3524229 70.1762115,32.9867841 70.1762115,33.8590308 C70.1762115,33.938326 70.1762115,34.0969163 70.1762115,34.3348018 L67.7180617,34.3348018 L67.7180617,34.3348018 Z M73.1894273,33.7004405 L74.8546256,33.7004405 C74.8546256,33.2246696 74.5374449,32.907489 74.061674,32.907489 C73.5859031,32.907489 73.1894273,33.1453744 73.1894273,33.7004405 Z M73.1894273,34.3348018 C73.1894273,34.8105727 73.4273128,35.2070485 74.061674,35.2070485 C74.5374449,35.2070485 74.6960352,34.969163 74.7753304,34.7312775 L75.5682819,34.7312775 C75.4889868,35.2863436 74.9339207,35.8414097 74.061674,35.8414097 C72.9515419,35.8414097 72.3964758,35.0484581 72.3964758,34.0969163 C72.3964758,33.0660793 73.030837,32.3524229 74.061674,32.3524229 C74.9339207,32.3524229 75.6475771,32.9867841 75.6475771,33.8590308 C75.6475771,33.938326 75.6475771,34.0969163 75.6475771,34.3348018 L73.1894273,34.3348018 L73.1894273,34.3348018 Z M76.5991189,32.3524229 L77.3920705,32.3524229 L77.3920705,32.8281938 C77.6299559,32.4317181 78.0264317,32.2731278 78.5022026,32.2731278 C78.9779736,32.2731278 79.2951542,32.4317181 79.5330396,32.7488987 C79.69163,32.9867841 79.7709251,33.3039648 79.7709251,33.7797357 L79.7709251,35.7621145 L78.9779736,35.7621145 L78.9779736,34.0176211 C78.9779736,33.4625551 78.8193833,32.9867841 78.2643172,32.9867841 C77.7092511,32.9867841 77.4713656,33.4625551 77.4713656,34.0176211 L77.4713656,35.7621145 L76.6784141,35.7621145 L76.6784141,32.3524229 L76.5991189,32.3524229 Z M84.845815,34.0969163 C84.845815,33.5418502 84.4493392,33.0660793 83.814978,33.0660793 C83.2599119,33.0660793 82.8634361,33.5418502 82.8634361,34.0969163 C82.8634361,34.6519824 83.2599119,35.1277533 83.814978,35.1277533 C84.4493392,35.1277533 84.845815,34.6519824 84.845815,34.0969163 Z M85.6387665,32.4317181 L85.6387665,35.7621145 L84.845815,35.7621145 L84.845815,35.2863436 C84.6079295,35.6035242 84.2114537,35.8414097 83.814978,35.8414097 C82.784141,35.8414097 82.0704846,35.0484581 82.0704846,34.0969163 C82.0704846,33.1453744 82.784141,32.3524229 83.814978,32.3524229 C84.2114537,32.3524229 84.6079295,32.5903084 84.845815,32.907489 L84.845815,32.4317181 C84.845815,32.4317181 85.6387665,32.4317181 85.6387665,32.4317181 Z M88.8898678,33.1453744 C88.8105727,33.1453744 88.6519824,33.1453744 88.5726872,33.1453744 C87.938326,33.1453744 87.5418502,33.5418502 87.5418502,34.3348018 L87.5418502,35.7621145 L86.7488987,35.7621145 L86.7488987,32.4317181 L87.5418502,32.4317181 L87.5418502,32.9867841 C87.7004405,32.6696035 88.0969163,32.4317181 88.5726872,32.4317181 C88.7312775,32.4317181 88.8105727,32.4317181 88.8898678,32.5110132 C88.8898678,32.4317181 88.8898678,33.1453744 88.8898678,33.1453744 Z M91.5859031,35.7621145 C91.4273128,35.7621145 91.1894273,35.8414097 91.030837,35.8414097 C90.6343612,35.8414097 89.9207048,35.7621145 89.9207048,34.6519824 L89.9207048,33.0660793 L89.3656388,33.0660793 L89.3656388,32.4317181 L89.9207048,32.4317181 L89.9207048,31.4008811 L90.7136564,31.4008811 L90.7136564,32.4317181 L91.5066079,32.4317181 L91.5066079,33.0660793 L90.7136564,33.0660793 L90.7136564,34.4140969 C90.7136564,34.969163 90.8722467,35.0484581 91.1894273,35.0484581 C91.3480176,35.0484581 91.5066079,35.0484581 91.5859031,35.0484581 L91.5859031,35.7621145 L91.5859031,35.7621145 Z M94.8370044,34.8105727 C94.8370044,35.5242291 94.2026432,35.8414097 93.4889868,35.8414097 C92.7753304,35.8414097 92.1409692,35.4449339 92.1409692,34.6519824 L92.9339207,34.6519824 C92.9339207,35.1277533 93.1718062,35.2863436 93.5682819,35.2863436 C93.8854626,35.2863436 94.123348,35.2070485 94.123348,34.8898678 C94.123348,34.5726872 93.8061674,34.5726872 93.092511,34.2555066 C92.6167401,34.0969163 92.2995595,33.938326 92.2995595,33.3039648 C92.2995595,32.6696035 92.8546256,32.3524229 93.5682819,32.3524229 C94.2819383,32.3524229 94.8370044,32.8281938 94.8370044,33.4625551 L94.0440529,33.4625551 C94.0440529,33.1453744 93.8854626,32.907489 93.4889868,32.907489 C93.2511013,32.907489 93.0132159,33.0660793 93.0132159,33.3039648 C93.0132159,33.6211454 93.3303965,33.6211454 93.9647577,33.8590308 C94.3612335,34.0176211 94.8370044,34.1762115 94.8370044,34.8105727 M99.8325991,34.0969163 C99.8325991,33.5418502 99.4361233,33.0660793 98.8017621,33.0660793 C98.246696,33.0660793 97.8502203,33.5418502 97.8502203,34.0969163 C97.8502203,34.6519824 98.246696,35.1277533 98.8017621,35.1277533 C99.4361233,35.1277533 99.8325991,34.6519824 99.8325991,34.0969163 Z M100.625551,32.4317181 L100.625551,35.7621145 L99.8325991,35.7621145 L99.8325991,35.2863436 C99.5947137,35.6035242 99.1982379,35.8414097 98.8017621,35.8414097 C97.7709251,35.8414097 97.0572687,35.0484581 97.0572687,34.0969163 C97.0572687,33.1453744 97.7709251,32.3524229 98.8017621,32.3524229 C99.1982379,32.3524229 99.5947137,32.5903084 99.8325991,32.907489 L99.8325991,32.4317181 C99.8325991,32.4317181 100.625551,32.4317181 100.625551,32.4317181 Z M102.528634,34.0969163 C102.528634,34.6519824 102.92511,35.1277533 103.559471,35.1277533 C104.114537,35.1277533 104.511013,34.6519824 104.511013,34.0969163 C104.511013,33.5418502 104.114537,33.0660793 103.559471,33.0660793 C102.92511,32.9867841 102.528634,33.4625551 102.528634,34.0969163 Z M102.528634,32.8281938 C102.76652,32.5110132 103.162996,32.2731278 103.559471,32.2731278 C104.590308,32.2731278 105.303965,33.0660793 105.303965,34.0176211 C105.303965,34.969163 104.590308,35.7621145 103.559471,35.7621145 C103.162996,35.7621145 102.76652,35.5242291 102.528634,35.2070485 L102.528634,37.3480176 L101.735683,37.3480176 L101.735683,32.2731278 L102.528634,32.2731278 L102.528634,32.8281938 L102.528634,32.8281938 Z M106.969163,34.0969163 C106.969163,34.6519824 107.365639,35.1277533 108,35.1277533 C108.555066,35.1277533 108.951542,34.6519824 108.951542,34.0969163 C108.951542,33.5418502 108.555066,33.0660793 108,33.0660793 C107.365639,32.9867841 106.969163,33.4625551 106.969163,34.0969163 Z M106.969163,32.8281938 C107.207048,32.5110132 107.603524,32.2731278 108,32.2731278 C109.030837,32.2731278 109.744493,33.0660793 109.744493,34.0176211 C109.744493,34.969163 109.030837,35.7621145 108,35.7621145 C107.603524,35.7621145 107.207048,35.5242291 106.969163,35.2070485 L106.969163,37.3480176 L106.176211,37.3480176 L106.176211,32.2731278 L106.969163,32.2731278 L106.969163,32.8281938 L106.969163,32.8281938 Z M110.61674,35.7621145 L111.409692,35.7621145 L111.409692,30.6872247 L110.61674,30.6872247 L110.61674,35.7621145 Z M112.519824,35.7621145 L113.312775,35.7621145 L113.312775,32.4317181 L112.519824,32.4317181 L112.519824,35.7621145 L112.519824,35.7621145 Z M112.9163,30.6079295 C113.23348,30.6079295 113.471366,30.845815 113.471366,31.1629956 C113.471366,31.4801762 113.23348,31.7180617 112.9163,31.7180617 C112.599119,31.7180617 112.361233,31.4801762 112.361233,31.1629956 C112.281938,30.845815 112.519824,30.6079295 112.9163,30.6079295 L112.9163,30.6079295 Z M114.898678,34.0969163 C114.898678,34.6519824 115.295154,35.1277533 115.85022,35.1277533 C116.484581,35.1277533 116.881057,34.6519824 116.881057,34.0969163 C116.881057,33.5418502 116.484581,33.0660793 115.85022,33.0660793 C115.295154,32.9867841 114.898678,33.4625551 114.898678,34.0969163 Z M116.881057,32.4317181 L117.674009,32.4317181 L117.674009,37.5066079 L116.881057,37.5066079 L116.881057,35.3656388 C116.643172,35.6828194 116.246696,35.9207048 115.85022,35.9207048 C114.819383,35.9207048 114.105727,35.1277533 114.105727,34.1762115 C114.105727,33.2246696 114.819383,32.4317181 115.85022,32.4317181 C116.246696,32.4317181 116.643172,32.6696035 116.881057,32.9867841 C116.881057,32.8281938 116.881057,32.4317181 116.881057,32.4317181 Z M121.876652,32.3524229 L121.876652,35.6828194 L121.0837,35.6828194 L121.0837,35.2070485 C120.845815,35.6035242 120.449339,35.7621145 119.973568,35.7621145 C119.497797,35.7621145 119.180617,35.6035242 118.942731,35.2863436 C118.784141,35.0484581 118.704846,34.7312775 118.704846,34.2555066 L118.704846,32.2731278 L119.497797,32.2731278 L119.497797,34.0969163 C119.497797,34.6519824 119.656388,35.1277533 120.211454,35.1277533 C120.76652,35.1277533 121.004405,34.6519824 121.004405,34.0969163 L121.004405,32.3524229 L121.876652,32.3524229 L121.876652,32.3524229 Z M123.54185,33.7004405 L125.207048,33.7004405 C125.207048,33.2246696 124.889868,32.907489 124.414097,32.907489 C123.938326,32.907489 123.54185,33.1453744 123.54185,33.7004405 L123.54185,33.7004405 Z M123.700441,32.1938326 L123.303965,31.5594714 L125.127753,30.6079295 L125.524229,31.2422907 L123.700441,32.1938326 Z M123.54185,34.3348018 C123.54185,34.8105727 123.779736,35.2070485 124.414097,35.2070485 C124.889868,35.2070485 125.048458,34.969163 125.127753,34.7312775 L125.920705,34.7312775 C125.84141,35.2863436 125.286344,35.8414097 124.414097,35.8414097 C123.303965,35.8414097 122.748899,35.0484581 122.748899,34.0969163 C122.748899,33.0660793 123.38326,32.3524229 124.414097,32.3524229 C125.286344,32.3524229 126,32.9867841 126,33.8590308 C126,33.938326 126,34.0969163 126,34.3348018 L123.54185,34.3348018 L123.54185,34.3348018 Z M129.409692,34.8105727 C129.409692,35.5242291 128.77533,35.8414097 128.061674,35.8414097 C127.348018,35.8414097 126.713656,35.4449339 126.713656,34.6519824 L127.506608,34.6519824 C127.506608,35.1277533 127.744493,35.2863436 128.140969,35.2863436 C128.45815,35.2863436 128.696035,35.2070485 128.696035,34.8898678 C128.696035,34.5726872 128.378855,34.5726872 127.665198,34.2555066 C127.189427,34.0969163 126.872247,33.938326 126.872247,33.3039648 C126.872247,32.6696035 127.427313,32.3524229 128.140969,32.3524229 C128.854626,32.3524229 129.409692,32.8281938 129.409692,33.4625551 L128.61674,33.4625551 C128.61674,33.1453744 128.45815,32.907489 128.061674,32.907489 C127.823789,32.907489 127.585903,33.0660793 127.585903,33.3039648 C127.585903,33.6211454 127.903084,33.6211454 128.537445,33.8590308 C128.933921,34.0176211 129.409692,34.1762115 129.409692,34.8105727 M1.58590308,41.8678414 L1.58590308,43.2951542 L2.53744493,43.2951542 C3.25110132,43.2951542 3.33039648,42.8986784 3.33039648,42.5814978 C3.33039648,42.3436123 3.17180617,41.8678414 2.53744493,41.8678414 L1.58590308,41.8678414 L1.58590308,41.8678414 Z M2.45814978,41.0748899 C3.17180617,41.0748899 3.25110132,40.5991189 3.25110132,40.3612335 C3.25110132,40.123348 3.17180617,39.6475771 2.45814978,39.6475771 L1.58590308,39.6475771 L1.58590308,40.9955947 C1.58590308,41.0748899 2.45814978,41.0748899 2.45814978,41.0748899 Z M0.713656388,39.0132159 L2.45814978,39.0132159 C3.8061674,39.0132159 4.04405286,39.8854626 4.04405286,40.3612335 C4.04405286,40.9955947 3.56828194,41.3920705 3.17180617,41.4713656 C3.48898678,41.4713656 4.12334802,41.8678414 4.12334802,42.5814978 C4.12334802,43.1365639 3.88546256,44.0088106 2.45814978,44.0088106 L0.713656388,44.0088106 L0.713656388,39.0132159 Z M5.7092511,42.0264317 L7.37444934,42.0264317 C7.37444934,41.5506608 7.05726872,41.2334802 6.5814978,41.2334802 C6.02643172,41.154185 5.7092511,41.4713656 5.7092511,42.0264317 L5.7092511,42.0264317 Z M5.7092511,42.5814978 C5.7092511,43.0572687 5.94713656,43.4537445 6.5814978,43.4537445 C7.05726872,43.4537445 7.21585903,43.215859 7.29515419,42.9779736 L8.08810573,42.9779736 C8.00881057,43.5330396 7.45374449,44.0881057 6.5814978,44.0881057 C5.47136564,44.0881057 4.91629956,43.2951542 4.91629956,42.3436123 C4.91629956,41.3127753 5.55066079,40.5991189 6.5814978,40.5991189 C7.45374449,40.5991189 8.16740088,41.2334802 8.16740088,42.1057269 C8.16740088,42.185022 8.16740088,42.3436123 8.16740088,42.5814978 L5.7092511,42.5814978 L5.7092511,42.5814978 Z M11.1806167,41.3920705 C11.1013216,41.3920705 10.9427313,41.3920705 10.8634361,41.3920705 C10.2290749,41.3920705 9.83259912,41.7885463 9.83259912,42.5814978 L9.83259912,44.0088106 L9.03964758,44.0088106 L9.03964758,40.6784141 L9.83259912,40.6784141 L9.83259912,41.2334802 C9.99118943,40.9162996 10.3876652,40.6784141 10.8634361,40.6784141 C11.0220264,40.6784141 11.1013216,40.6784141 11.1806167,40.7577093 C11.1806167,40.6784141 11.1806167,41.3920705 11.1806167,41.3920705 Z M14.907489,40.6784141 L14.907489,44.0088106 L14.1145374,44.0088106 L14.1145374,43.5330396 C13.876652,43.9295154 13.4801762,44.0881057 13.0044053,44.0881057 C12.5286344,44.0881057 12.2114537,43.9295154 11.9735683,43.6123348 C11.814978,43.3744493 11.7356828,43.0572687 11.7356828,42.5814978 L11.7356828,40.5991189 L12.5286344,40.5991189 L12.5286344,42.3436123 C12.5286344,42.8986784 12.6872247,43.3744493 13.2422907,43.3744493 C13.7973568,43.3744493 14.0352423,42.8986784 14.0352423,42.3436123 L14.0352423,40.5991189 C14.1145374,40.6784141 14.907489,40.6784141 14.907489,40.6784141 Z M18,39.7268722 C17.9207048,39.7268722 17.7621145,39.6475771 17.6828194,39.6475771 C17.4449339,39.6475771 17.1277533,39.6475771 17.1277533,40.2026432 L17.1277533,40.6784141 L18,40.6784141 L18,41.3127753 L17.1277533,41.3127753 L17.1277533,44.0088106 L16.3348018,44.0088106 L16.3348018,41.3127753 L15.6211454,41.3127753 L15.6211454,40.6784141 L16.3348018,40.6784141 L16.3348018,40.2819383 C16.3348018,39.0132159 17.1277533,38.9339207 17.5242291,38.9339207 C17.7621145,38.9339207 17.9207048,39.0132159 18,39.0132159 L18,39.7268722 L18,39.7268722 Z M21.2511013,43.0572687 C21.2511013,43.7709251 20.6167401,44.0881057 19.9030837,44.0881057 C19.1894273,44.0881057 18.5550661,43.69163 18.5550661,42.8986784 L19.3480176,42.8986784 C19.3480176,43.3744493 19.5859031,43.5330396 19.9823789,43.5330396 C20.2995595,43.5330396 20.5374449,43.4537445 20.5374449,43.1365639 C20.5374449,42.8193833 20.2202643,42.8193833 19.5066079,42.5022026 C19.030837,42.3436123 18.7136564,42.185022 18.7136564,41.5506608 C18.7136564,40.9162996 19.2687225,40.5991189 19.9823789,40.5991189 C20.6960352,40.5991189 21.2511013,41.0748899 21.2511013,41.7092511 L20.4581498,41.7092511 C20.4581498,41.3920705 20.2995595,41.154185 19.9030837,41.154185 C19.6651982,41.154185 19.4273128,41.3127753 19.4273128,41.5506608 C19.4273128,41.8678414 19.7444934,41.8678414 20.3788546,42.1057269 C20.7753304,42.3436123 21.2511013,42.5022026 21.2511013,43.0572687 M24.1057269,39.7268722 C24.0264317,39.6475771 23.8678414,39.6475771 23.7885463,39.6475771 C23.5506608,39.6475771 23.2334802,39.6475771 23.2334802,40.2026432 L23.2334802,40.6784141 L24.1057269,40.6784141 L24.1057269,41.3127753 L23.2334802,41.3127753 L23.2334802,44.0088106 L22.4405286,44.0088106 L22.4405286,41.3127753 L21.7268722,41.3127753 L21.7268722,40.6784141 L22.4405286,40.6784141 L22.4405286,40.2819383 C22.4405286,39.0132159 23.2334802,38.9339207 23.6299559,38.9339207 C23.8678414,38.9339207 24.0264317,39.0132159 24.1057269,39.0132159 L24.1057269,39.7268722 L24.1057269,39.7268722 Z M27.3568282,42.3436123 C27.3568282,41.7885463 26.9603524,41.3127753 26.3259912,41.3127753 C25.7709251,41.3127753 25.3744493,41.7885463 25.3744493,42.3436123 C25.3744493,42.8986784 25.7709251,43.3744493 26.3259912,43.3744493 C26.9603524,43.4537445 27.3568282,42.8986784 27.3568282,42.3436123 L27.3568282,42.3436123 Z M28.1497797,40.6784141 L28.1497797,44.0088106 L27.3568282,44.0088106 L27.3568282,43.6123348 C27.1189427,43.9295154 26.722467,44.1674009 26.3259912,44.1674009 C25.2951542,44.1674009 24.5814978,43.3744493 24.5814978,42.4229075 C24.5814978,41.4713656 25.2951542,40.6784141 26.3259912,40.6784141 C26.722467,40.6784141 27.1189427,40.9162996 27.3568282,41.2334802 L27.3568282,40.7577093 L28.1497797,40.6784141 L28.1497797,40.6784141 Z M31.4801762,41.8678414 C31.4008811,41.4713656 31.2422907,41.2334802 30.6872247,41.2334802 C30.0528634,41.2334802 29.814978,41.7092511 29.814978,42.2643172 C29.814978,42.8193833 30.0528634,43.2951542 30.7665198,43.2951542 C31.2422907,43.2951542 31.4008811,43.0572687 31.4801762,42.7400881 L32.2731278,42.7400881 C32.1938326,43.4537445 31.6387665,44.0088106 30.6872247,44.0088106 C29.5770925,44.0088106 29.0220264,43.1365639 29.0220264,42.2643172 C29.0220264,41.3920705 29.5770925,40.5198238 30.6872247,40.5198238 C31.7973568,40.5198238 32.1938326,41.154185 32.2731278,41.8678414 L31.4801762,41.8678414 L31.4801762,41.8678414 Z M33.2246696,39.0132159 L34.0176211,39.0132159 L34.0176211,41.154185 C34.2555066,40.7577093 34.6519824,40.5991189 35.1277533,40.5991189 C35.6035242,40.5991189 35.9207048,40.7577093 36.1585903,41.0748899 C36.3171806,41.3127753 36.3964758,41.6299559 36.3964758,42.1057269 L36.3964758,44.0881057 L35.6035242,44.0881057 L35.6035242,42.3436123 C35.6035242,41.7885463 35.4449339,41.3127753 34.8898678,41.3127753 C34.3348018,41.3127753 34.0969163,41.7885463 34.0969163,42.3436123 L34.0969163,44.0881057 L33.3039648,44.0881057 L33.3039648,39.0132159 L33.2246696,39.0132159 Z M39.8061674,43.0572687 C39.8061674,43.7709251 39.1718062,44.0881057 38.4581498,44.0881057 C37.7444934,44.0881057 37.1101322,43.69163 37.1101322,42.8986784 L37.9030837,42.8986784 C37.9030837,43.3744493 38.1409692,43.5330396 38.5374449,43.5330396 C38.8546256,43.5330396 39.092511,43.4537445 39.092511,43.1365639 C39.092511,42.8193833 38.7753304,42.8193833 38.061674,42.5022026 C37.5859031,42.3436123 37.2687225,42.185022 37.2687225,41.5506608 C37.2687225,40.9162996 37.8237885,40.5991189 38.5374449,40.5991189 C39.2511013,40.5991189 39.8061674,41.0748899 39.8061674,41.7092511 L39.0132159,41.7092511 C39.0132159,41.3920705 38.8546256,41.154185 38.4581498,41.154185 C38.2202643,41.154185 37.9823789,41.3127753 37.9823789,41.5506608 C37.9823789,41.8678414 38.2995595,41.8678414 38.9339207,42.1057269 C39.4096916,42.3436123 39.8061674,42.5022026 39.8061674,43.0572687 M42.9779736,41.8678414 C42.8986784,41.4713656 42.7400881,41.2334802 42.185022,41.2334802 C41.5506608,41.2334802 41.3127753,41.7092511 41.3127753,42.2643172 C41.3127753,42.8193833 41.5506608,43.2951542 42.2643172,43.2951542 C42.7400881,43.2951542 42.8986784,43.0572687 42.9779736,42.7400881 L43.7709251,42.7400881 C43.69163,43.4537445 43.1365639,44.0088106 42.185022,44.0088106 C41.0748899,44.0088106 40.5198238,43.1365639 40.5198238,42.2643172 C40.5198238,41.3920705 41.0748899,40.5198238 42.185022,40.5198238 C43.2951542,40.5198238 43.69163,41.154185 43.7709251,41.8678414 C43.7709251,41.8678414 42.9779736,41.8678414 42.9779736,41.8678414 Z M44.722467,39.0132159 L45.5154185,39.0132159 L45.5154185,41.154185 C45.753304,40.7577093 46.1497797,40.5991189 46.6255507,40.5991189 C47.1013216,40.5991189 47.4185022,40.7577093 47.6563877,41.0748899 C47.814978,41.3127753 47.8942731,41.6299559 47.8942731,42.1057269 L47.8942731,44.0881057 L47.1013216,44.0881057 L47.1013216,42.3436123 C47.1013216,41.7885463 46.9427313,41.3127753 46.3876652,41.3127753 C45.8325991,41.3127753 45.5947137,41.7885463 45.5947137,42.3436123 L45.5947137,44.0881057 L44.8017621,44.0881057 L44.8017621,39.0132159 L44.722467,39.0132159 Z M51.938326,40.6784141 L51.938326,44.0088106 L51.1453744,44.0088106 L51.1453744,43.5330396 C50.907489,43.9295154 50.5110132,44.0881057 50.0352423,44.0881057 C49.5594714,44.0881057 49.2422907,43.9295154 49.0044053,43.6123348 C48.845815,43.3744493 48.7665198,43.0572687 48.7665198,42.5814978 L48.7665198,40.5991189 L49.5594714,40.5991189 L49.5594714,42.3436123 C49.5594714,42.8986784 49.7180617,43.3744493 50.2731278,43.3744493 C50.8281938,43.3744493 51.0660793,42.8986784 51.0660793,42.3436123 L51.0660793,40.5991189 L51.938326,40.5991189 L51.938326,40.6784141 Z M53.0484581,44.0088106 L53.8414097,44.0088106 L53.8414097,38.9339207 L53.0484581,38.9339207 L53.0484581,44.0088106 Z M55.5066079,42.0264317 L57.1718062,42.0264317 C57.1718062,41.5506608 56.8546256,41.2334802 56.3788546,41.2334802 C55.8237885,41.154185 55.5066079,41.4713656 55.5066079,42.0264317 L55.5066079,42.0264317 Z M55.5066079,42.5814978 C55.5066079,43.0572687 55.7444934,43.4537445 56.3788546,43.4537445 C56.8546256,43.4537445 57.0132159,43.215859 57.092511,42.9779736 L57.8854626,42.9779736 C57.8061674,43.5330396 57.2511013,44.0881057 56.3788546,44.0881057 C55.2687225,44.0881057 54.7136564,43.2951542 54.7136564,42.3436123 C54.7136564,41.3127753 55.3480176,40.5991189 56.3788546,40.5991189 C57.2511013,40.5991189 57.9647577,41.2334802 57.9647577,42.1057269 C57.9647577,42.185022 57.9647577,42.3436123 57.9647577,42.5814978 L55.5066079,42.5814978 L55.5066079,42.5814978 Z M62.4052863,39.7268722 C62.3259912,39.7268722 62.1674009,39.6475771 62.0881057,39.6475771 C61.8502203,39.6475771 61.5330396,39.6475771 61.5330396,40.2026432 L61.5330396,40.6784141 L62.4052863,40.6784141 L62.4052863,41.3127753 L61.5330396,41.3127753 L61.5330396,44.0088106 L60.7400881,44.0088106 L60.7400881,41.3127753 L60.0264317,41.3127753 L60.0264317,40.6784141 L60.7400881,40.6784141 L60.7400881,40.2819383 C60.7400881,39.0132159 61.5330396,38.9339207 61.9295154,38.9339207 C62.1674009,38.9339207 62.3259912,39.0132159 62.4052863,39.0132159 L62.4052863,39.7268722 L62.4052863,39.7268722 Z M63.753304,39.0132159 C64.0704846,39.0132159 64.30837,39.2511013 64.30837,39.5682819 C64.30837,39.8854626 64.0704846,40.123348 63.753304,40.123348 C63.4361233,40.123348 63.1982379,39.8854626 63.1982379,39.5682819 C63.1982379,39.2511013 63.4361233,39.0132159 63.753304,39.0132159 Z M66.1321586,44.0088106 L65.339207,44.0088106 L65.339207,43.5330396 C65.1013216,43.9295154 64.7048458,44.0881057 64.2290749,44.0881057 C63.753304,44.0881057 63.4361233,43.9295154 63.1982379,43.6123348 C63.0396476,43.3744493 62.9603524,43.0572687 62.9603524,42.5814978 L62.9603524,40.5991189 L63.753304,40.5991189 L63.753304,42.3436123 C63.753304,42.8986784 63.9118943,43.3744493 64.4669604,43.3744493 C65.0220264,43.3744493 65.2599119,42.8986784 65.2599119,42.3436123 L65.2599119,40.5991189 L66.0528634,40.5991189 L66.0528634,44.0088106 L66.1321586,44.0088106 Z M69.3832599,41.3920705 C69.3039648,41.3920705 69.1453744,41.3920705 69.0660793,41.3920705 C68.4317181,41.3920705 68.0352423,41.7885463 68.0352423,42.5814978 L68.0352423,44.0088106 L67.2422907,44.0088106 L67.2422907,40.6784141 L68.0352423,40.6784141 L68.0352423,41.2334802 C68.1938326,40.9162996 68.5903084,40.6784141 69.0660793,40.6784141 C69.2246696,40.6784141 69.3039648,40.6784141 69.3832599,40.7577093 C69.3832599,40.6784141 69.3832599,41.3920705 69.3832599,41.3920705 Z M74.6167401,41.4713656 L76.9955947,41.4713656 L76.9955947,42.185022 L76.4405286,42.185022 C76.2026432,43.2951542 75.4096916,44.0881057 73.9823789,44.0881057 C72.3171806,44.0881057 71.3656388,42.8193833 71.3656388,41.4713656 C71.3656388,40.123348 72.3964758,38.8546256 73.9823789,38.8546256 C75.1718062,38.8546256 76.0440529,39.5682819 76.123348,40.5198238 L75.3303965,40.5198238 C75.2511013,40.0440529 74.6960352,39.6475771 73.9823789,39.6475771 C72.8722467,39.6475771 72.2378855,40.5991189 72.2378855,41.5506608 C72.2378855,42.5022026 72.8722467,43.4537445 74.061674,43.4537445 C74.9339207,43.4537445 75.4096916,42.8986784 75.5682819,42.2643172 L74.6167401,42.2643172 C74.6167401,42.2643172 74.6167401,41.4713656 74.6167401,41.4713656 Z M78.3436123,42.0264317 L80.0088106,42.0264317 C80.0088106,41.5506608 79.69163,41.2334802 79.215859,41.2334802 C78.7400881,41.154185 78.3436123,41.4713656 78.3436123,42.0264317 Z M78.3436123,42.5814978 C78.3436123,43.0572687 78.5814978,43.4537445 79.215859,43.4537445 C79.69163,43.4537445 79.8502203,43.215859 79.9295154,42.9779736 L80.722467,42.9779736 C80.6431718,43.5330396 80.0881057,44.0881057 79.215859,44.0881057 C78.1057269,44.0881057 77.5506608,43.2951542 77.5506608,42.3436123 C77.5506608,41.3127753 78.185022,40.5991189 79.215859,40.5991189 C80.0881057,40.5991189 80.8017621,41.2334802 80.8017621,42.1057269 C80.8017621,42.185022 80.8017621,42.3436123 80.8017621,42.5814978 L78.3436123,42.5814978 L78.3436123,42.5814978 Z M84.2114537,43.0572687 C84.2114537,43.7709251 83.5770925,44.0881057 82.8634361,44.0881057 C82.1497797,44.0881057 81.5154185,43.69163 81.5154185,42.8986784 L82.30837,42.8986784 C82.30837,43.3744493 82.5462555,43.5330396 82.9427313,43.5330396 C83.2599119,43.5330396 83.4977974,43.4537445 83.4977974,43.1365639 C83.4977974,42.8193833 83.1806167,42.8193833 82.4669604,42.5022026 C81.9911894,42.3436123 81.6740088,42.185022 81.6740088,41.5506608 C81.6740088,40.9162996 82.2290749,40.5991189 82.9427313,40.5991189 C83.6563877,40.5991189 84.2114537,41.0748899 84.2114537,41.7092511 L83.4185022,41.7092511 C83.4185022,41.3920705 83.2599119,41.154185 82.8634361,41.154185 C82.6255507,41.154185 82.3876652,41.3127753 82.3876652,41.5506608 C82.3876652,41.8678414 82.7048458,41.8678414 83.339207,42.1057269 C83.7356828,42.3436123 84.2114537,42.5022026 84.2114537,43.0572687 M86.9867841,44.0088106 C86.8281938,44.0088106 86.5903084,44.0881057 86.4317181,44.0881057 C86.0352423,44.0881057 85.3215859,44.0088106 85.3215859,42.8986784 L85.3215859,41.3127753 L84.7665198,41.3127753 L84.7665198,40.6784141 L85.3215859,40.6784141 L85.3215859,39.6475771 L86.1145374,39.6475771 L86.1145374,40.6784141 L86.907489,40.6784141 L86.907489,41.3127753 L86.1145374,41.3127753 L86.1145374,42.660793 C86.1145374,43.215859 86.2731278,43.2951542 86.5903084,43.2951542 C86.7488987,43.2951542 86.907489,43.2951542 86.9867841,43.2951542 C86.9867841,43.3744493 86.9867841,44.0088106 86.9867841,44.0088106 Z M90.2378855,42.3436123 C90.2378855,41.7885463 89.8414097,41.3127753 89.2070485,41.3127753 C88.6519824,41.3127753 88.2555066,41.7885463 88.2555066,42.3436123 C88.2555066,42.8986784 88.6519824,43.3744493 89.2070485,43.3744493 C89.8414097,43.4537445 90.2378855,42.8986784 90.2378855,42.3436123 Z M91.030837,40.6784141 L91.030837,44.0088106 L90.2378855,44.0088106 L90.2378855,43.6123348 C90,43.9295154 89.6035242,44.1674009 89.2070485,44.1674009 C88.1762115,44.1674009 87.4625551,43.3744493 87.4625551,42.4229075 C87.4625551,41.4713656 88.1762115,40.6784141 89.2070485,40.6784141 C89.6035242,40.6784141 90,40.9162996 90.2378855,41.2334802 L90.2378855,40.7577093 C90.2378855,40.6784141 91.030837,40.6784141 91.030837,40.6784141 Z M92.1409692,44.0088106 L92.9339207,44.0088106 L92.9339207,38.9339207 L92.1409692,38.9339207 L92.1409692,44.0088106 Z M95.9471366,44.0088106 C95.7885463,44.0088106 95.5506608,44.0881057 95.3920705,44.0881057 C94.9955947,44.0881057 94.2819383,44.0088106 94.2819383,42.8986784 L94.2819383,41.3127753 L93.7268722,41.3127753 L93.7268722,40.6784141 L94.2819383,40.6784141 L94.2819383,39.6475771 L95.0748899,39.6475771 L95.0748899,40.6784141 L95.8678414,40.6784141 L95.8678414,41.3127753 L95.0748899,41.3127753 L95.0748899,42.660793 C95.0748899,43.215859 95.2334802,43.2951542 95.5506608,43.2951542 C95.7092511,43.2951542 95.8678414,43.2951542 95.9471366,43.2951542 L95.9471366,44.0088106 L95.9471366,44.0088106 Z M99.6740088,40.6784141 L99.6740088,44.0088106 L98.8810573,44.0088106 L98.8810573,43.5330396 C98.6431718,43.9295154 98.246696,44.0881057 97.7709251,44.0881057 C97.2951542,44.0881057 96.9779736,43.9295154 96.7400881,43.6123348 C96.5814978,43.3744493 96.5022026,43.0572687 96.5022026,42.5814978 L96.5022026,40.5991189 L97.2951542,40.5991189 L97.2951542,42.3436123 C97.2951542,42.8986784 97.4537445,43.3744493 98.0088106,43.3744493 C98.5638767,43.3744493 98.8017621,42.8986784 98.8017621,42.3436123 L98.8017621,40.5991189 C98.8810573,40.6784141 99.6740088,40.6784141 99.6740088,40.6784141 Z M100.784141,40.6784141 L101.577093,40.6784141 L101.577093,41.154185 C101.814978,40.7577093 102.211454,40.5991189 102.687225,40.5991189 C103.162996,40.5991189 103.480176,40.7577093 103.718062,41.0748899 C103.876652,41.3127753 103.955947,41.6299559 103.955947,42.1057269 L103.955947,44.0881057 L103.162996,44.0881057 L103.162996,42.3436123 C103.162996,41.7885463 103.004405,41.3127753 102.449339,41.3127753 C101.894273,41.3127753 101.656388,41.7885463 101.656388,42.3436123 L101.656388,44.0881057 L100.863436,44.0881057 C100.784141,44.0088106 100.784141,40.6784141 100.784141,40.6784141 Z M105.54185,42.3436123 C105.54185,42.8986784 105.938326,43.3744493 106.493392,43.3744493 C107.127753,43.3744493 107.524229,42.8986784 107.524229,42.3436123 C107.524229,41.7885463 107.127753,41.3127753 106.493392,41.3127753 C105.938326,41.3127753 105.54185,41.7885463 105.54185,42.3436123 Z M108.317181,44.1674009 C108.317181,44.722467 108.15859,45.1189427 107.84141,45.3568282 C107.524229,45.5947137 107.048458,45.753304 106.493392,45.753304 C105.938326,45.753304 105.54185,45.5947137 105.22467,45.3568282 C104.986784,45.1189427 104.828194,44.8017621 104.748899,44.4052863 L105.54185,44.4052863 C105.621145,44.8017621 105.859031,45.1189427 106.414097,45.1189427 C107.048458,45.1189427 107.444934,44.8810573 107.444934,44.246696 L107.444934,43.6123348 C107.207048,43.9295154 106.810573,44.1674009 106.414097,44.1674009 C105.38326,44.1674009 104.669604,43.3744493 104.669604,42.4229075 C104.669604,41.4713656 105.38326,40.6784141 106.414097,40.6784141 C106.810573,40.6784141 107.207048,40.9162996 107.444934,41.2334802 L107.444934,40.7577093 L108.237885,40.7577093 C108.317181,40.6784141 108.317181,44.1674009 108.317181,44.1674009 Z M2.53744493,52.3348018 L1.98237885,52.3348018 L0.237885463,47.2599119 L1.11013216,47.2599119 L2.29955947,50.907489 L3.48898678,47.2599119 L4.36123348,47.2599119 L2.53744493,52.3348018 Z M7.13656388,50.6696035 C7.13656388,50.1145374 6.74008811,49.6387665 6.10572687,49.6387665 C5.55066079,49.6387665 5.15418502,50.1145374 5.15418502,50.6696035 C5.15418502,51.2246696 5.55066079,51.7004405 6.10572687,51.7004405 C6.74008811,51.7004405 7.13656388,51.2246696 7.13656388,50.6696035 M4.36123348,50.6696035 C4.36123348,49.7180617 5.07488987,48.9251101 6.10572687,48.9251101 C7.21585903,48.9251101 7.85022026,49.7180617 7.85022026,50.6696035 C7.85022026,51.6211454 7.13656388,52.4140969 6.10572687,52.4140969 C5.07488987,52.4140969 4.36123348,51.5418502 4.36123348,50.6696035 M11.1013216,50.1938326 C11.0220264,49.7973568 10.8634361,49.5594714 10.30837,49.5594714 C9.67400881,49.5594714 9.43612335,50.0352423 9.43612335,50.5903084 C9.43612335,51.1453744 9.67400881,51.6211454 10.3876652,51.6211454 C10.8634361,51.6211454 11.0220264,51.3832599 11.1013216,51.0660793 L11.8942731,51.0660793 C11.814978,51.7797357 11.2599119,52.3348018 10.30837,52.3348018 C9.19823789,52.3348018 8.64317181,51.4625551 8.64317181,50.5903084 C8.64317181,49.7180617 9.19823789,48.845815 10.30837,48.845815 C11.4185022,48.845815 11.814978,49.4801762 11.8942731,50.1938326 L11.1013216,50.1938326 L11.1013216,50.1938326 Z M15.3039648,50.6696035 C15.3039648,50.1145374 14.907489,49.6387665 14.2731278,49.6387665 C13.7180617,49.6387665 13.3215859,50.1145374 13.3215859,50.6696035 C13.3215859,51.2246696 13.7180617,51.7004405 14.2731278,51.7004405 C14.907489,51.7004405 15.3039648,51.2246696 15.3039648,50.6696035 Z M16.0969163,48.9251101 L16.0969163,52.3348018 L15.3039648,52.3348018 L15.3039648,51.8590308 C15.0660793,52.1762115 14.6696035,52.4140969 14.2731278,52.4140969 C13.2422907,52.4140969 12.5286344,51.6211454 12.5286344,50.6696035 C12.5286344,49.7180617 13.2422907,48.9251101 14.2731278,48.9251101 C14.6696035,48.9251101 15.0660793,49.1629956 15.3039648,49.4801762 L15.3039648,49.0044053 L16.0969163,48.9251101 L16.0969163,48.9251101 Z M19.030837,52.3348018 C18.8722467,52.3348018 18.6343612,52.4140969 18.4757709,52.4140969 C18.0792952,52.4140969 17.3656388,52.3348018 17.3656388,51.2246696 L17.3656388,49.6387665 L16.8105727,49.6387665 L16.8105727,49.0044053 L17.3656388,49.0044053 L17.3656388,47.9735683 L18.1585903,47.9735683 L18.1585903,49.0044053 L18.9515419,49.0044053 L18.9515419,49.6387665 L18.1585903,49.6387665 L18.1585903,50.9867841 C18.1585903,51.5418502 18.3171806,51.6211454 18.6343612,51.6211454 C18.7929515,51.6211454 18.9515419,51.6211454 19.030837,51.6211454 C19.030837,51.6211454 19.030837,52.3348018 19.030837,52.3348018 Z M19.7444934,52.3348018 L20.5374449,52.3348018 L20.5374449,49.0044053 L19.7444934,49.0044053 L19.7444934,52.3348018 Z M20.1409692,47.1806167 C20.4581498,47.1806167 20.7753304,47.4185022 20.7753304,47.7356828 C20.7753304,48.0528634 20.5374449,48.3700441 20.2202643,48.3700441 C20.2202643,48.3700441 20.1409692,48.3700441 20.1409692,48.3700441 C19.8237885,48.3700441 19.5859031,48.0528634 19.5859031,47.7356828 C19.6651982,47.4185022 19.9030837,47.1806167 20.1409692,47.1806167 L20.1409692,47.1806167 Z M24.185022,50.6696035 C24.185022,50.1145374 23.7885463,49.6387665 23.154185,49.6387665 C22.5991189,49.6387665 22.2026432,50.1145374 22.2026432,50.6696035 C22.2026432,51.2246696 22.5991189,51.7004405 23.154185,51.7004405 C23.7885463,51.7004405 24.185022,51.2246696 24.185022,50.6696035 M21.4096916,50.6696035 C21.4096916,49.7180617 22.123348,48.9251101 23.154185,48.9251101 C24.2643172,48.9251101 24.8986784,49.7180617 24.8986784,50.6696035 C24.8986784,51.6211454 24.185022,52.4140969 23.154185,52.4140969 C22.123348,52.4140969 21.4096916,51.5418502 21.4096916,50.6696035 M25.8502203,48.9251101 L26.6431718,48.9251101 L26.6431718,49.4008811 C26.8810573,49.0044053 27.277533,48.845815 27.753304,48.845815 C28.2290749,48.845815 28.5462555,49.0044053 28.784141,49.3215859 C28.9427313,49.5594714 29.0220264,49.876652 29.0220264,50.3524229 L29.0220264,52.3348018 L28.2290749,52.3348018 L28.2290749,50.5903084 C28.2290749,50.0352423 28.0704846,49.5594714 27.5154185,49.5594714 C26.9603524,49.5594714 26.722467,50.0352423 26.722467,50.5903084 L26.722467,52.3348018 L25.9295154,52.3348018 C25.8502203,52.3348018 25.8502203,48.9251101 25.8502203,48.9251101 Z M32.5110132,50.6696035 C32.5110132,50.1145374 32.1145374,49.6387665 31.4801762,49.6387665 C30.9251101,49.6387665 30.5286344,50.1145374 30.5286344,50.6696035 C30.5286344,51.2246696 30.9251101,51.7004405 31.4801762,51.7004405 C32.1145374,51.7004405 32.5110132,51.2246696 32.5110132,50.6696035 Z M33.3039648,48.9251101 L33.3039648,52.3348018 L32.5110132,52.3348018 L32.5110132,51.8590308 C32.2731278,52.1762115 31.876652,52.4140969 31.4801762,52.4140969 C30.4493392,52.4140969 29.7356828,51.6211454 29.7356828,50.6696035 C29.7356828,49.7180617 30.4493392,48.9251101 31.4801762,48.9251101 C31.876652,48.9251101 32.2731278,49.1629956 32.5110132,49.4801762 L32.5110132,49.0044053 L33.3039648,48.9251101 L33.3039648,48.9251101 Z M34.4140969,52.3348018 L35.2070485,52.3348018 L35.2070485,47.2599119 L34.4140969,47.2599119 L34.4140969,52.3348018 Z M38.5374449,50.6696035 C38.5374449,51.3039648 38.9339207,51.7004405 39.4889868,51.7004405 C39.9647577,51.7004405 40.2819383,51.3832599 40.2819383,50.9867841 C40.2819383,50.5110132 39.8061674,50.2731278 39.4889868,50.1938326 C38.5374449,49.876652 37.8237885,49.5594714 37.8237885,48.6079295 C37.8237885,47.7356828 38.5374449,47.2599119 39.4096916,47.2599119 C40.2819383,47.2599119 40.9955947,47.8942731 40.9955947,48.845815 L40.2026432,48.845815 C40.2026432,48.3700441 39.8854626,47.9735683 39.4096916,47.9735683 C39.0132159,47.9735683 38.6167401,48.2114537 38.6167401,48.6079295 C38.6167401,49.0044053 39.0132159,49.2422907 39.3303965,49.3215859 C40.123348,49.6387665 41.0748899,49.9559471 41.0748899,50.907489 C41.0748899,51.938326 40.2819383,52.4933921 39.3303965,52.4933921 C38.3788546,52.4933921 37.5859031,51.8590308 37.5859031,50.7488987 C37.7444934,50.6696035 38.5374449,50.6696035 38.5374449,50.6696035 Z M44.4052863,50.1938326 C44.3259912,49.7973568 44.1674009,49.5594714 43.6123348,49.5594714 C42.9779736,49.5594714 42.7400881,50.0352423 42.7400881,50.5903084 C42.7400881,51.1453744 42.9779736,51.6211454 43.69163,51.6211454 C44.1674009,51.6211454 44.3259912,51.3832599 44.4052863,51.0660793 L45.1982379,51.0660793 C45.1189427,51.7797357 44.5638767,52.3348018 43.6123348,52.3348018 C42.5022026,52.3348018 41.9471366,51.4625551 41.9471366,50.5903084 C41.9471366,49.7180617 42.5022026,48.845815 43.6123348,48.845815 C44.722467,48.845815 45.1189427,49.4801762 45.1982379,50.1938326 L44.4052863,50.1938326 L44.4052863,50.1938326 Z M46.0704846,47.2599119 L46.8634361,47.2599119 L46.8634361,49.4008811 C47.1013216,49.0044053 47.4977974,48.845815 47.9735683,48.845815 C48.4493392,48.845815 48.7665198,49.0044053 49.0044053,49.3215859 C49.1629956,49.5594714 49.2422907,49.876652 49.2422907,50.3524229 L49.2422907,52.3348018 L48.4493392,52.3348018 L48.4493392,50.5903084 C48.4493392,50.0352423 48.2907489,49.5594714 47.7356828,49.5594714 C47.1806167,49.5594714 46.9427313,50.0352423 46.9427313,50.5903084 L46.9427313,52.3348018 L46.1497797,52.3348018 L46.0704846,47.2599119 L46.0704846,47.2599119 Z M52.7312775,50.6696035 C52.7312775,50.1145374 52.3348018,49.6387665 51.7004405,49.6387665 C51.1453744,49.6387665 50.7488987,50.1145374 50.7488987,50.6696035 C50.7488987,51.2246696 51.1453744,51.7004405 51.7004405,51.7004405 C52.4140969,51.7004405 52.7312775,51.2246696 52.7312775,50.6696035 M50.0352423,50.6696035 C50.0352423,49.7180617 50.7488987,48.9251101 51.7797357,48.9251101 C52.8898678,48.9251101 53.5242291,49.7180617 53.5242291,50.6696035 C53.5242291,51.6211454 52.8105727,52.4140969 51.7797357,52.4140969 C50.6696035,52.4140969 50.0352423,51.5418502 50.0352423,50.6696035 M56.9339207,50.6696035 C56.9339207,50.1145374 56.5374449,49.6387665 55.9030837,49.6387665 C55.3480176,49.6387665 54.9515419,50.1145374 54.9515419,50.6696035 C54.9515419,51.2246696 55.3480176,51.7004405 55.9030837,51.7004405 C56.6167401,51.7004405 56.9339207,51.2246696 56.9339207,50.6696035 M54.2378855,50.6696035 C54.2378855,49.7180617 54.9515419,48.9251101 55.9823789,48.9251101 C57.092511,48.9251101 57.7268722,49.7180617 57.7268722,50.6696035 C57.7268722,51.6211454 57.0132159,52.4140969 55.9823789,52.4140969 C54.8722467,52.4140969 54.2378855,51.5418502 54.2378855,50.6696035 M58.6784141,52.3348018 L59.4713656,52.3348018 L59.4713656,47.2599119 L58.6784141,47.2599119 L58.6784141,52.3348018 Z M64.6255507,50.6696035 C64.6255507,50.1145374 64.2290749,49.6387665 63.5947137,49.6387665 C63.0396476,49.6387665 62.6431718,50.1145374 62.6431718,50.6696035 C62.6431718,51.2246696 63.0396476,51.7004405 63.5947137,51.7004405 C64.2290749,51.7004405 64.6255507,51.2246696 64.6255507,50.6696035 M61.9295154,50.6696035 C61.9295154,49.7180617 62.6431718,48.9251101 63.6740088,48.9251101 C64.784141,48.9251101 65.4185022,49.7180617 65.4185022,50.6696035 C65.4185022,51.6211454 64.7048458,52.4140969 63.6740088,52.4140969 C62.5638767,52.4140969 61.9295154,51.5418502 61.9295154,50.6696035 M68.2731278,47.9735683 C68.1938326,47.9735683 68.0352423,47.8942731 67.9559471,47.8942731 C67.7180617,47.8942731 67.4008811,47.8942731 67.4008811,48.4493392 L67.4008811,48.9251101 L68.2731278,48.9251101 L68.2731278,49.5594714 L67.4008811,49.5594714 L67.4008811,52.3348018 L66.6079295,52.3348018 L66.6079295,49.6387665 L65.8942731,49.6387665 L65.8942731,49.0044053 L66.6079295,49.0044053 L66.6079295,48.6079295 C66.6079295,47.339207 67.4008811,47.2599119 67.7973568,47.2599119 C68.0352423,47.2599119 68.1938326,47.339207 68.2731278,47.339207 C68.2731278,47.339207 68.2731278,47.9735683 68.2731278,47.9735683 Z M72.0792952,48.6079295 L71.3656388,50.907489 L72.7929515,50.907489 L72.0792952,48.6079295 Z M73.2687225,52.3348018 L73.030837,51.7004405 L71.1277533,51.7004405 L70.8898678,52.3348018 L70.0176211,52.3348018 L71.7621145,47.2599119 L72.3171806,47.2599119 L74.061674,52.3348018 L73.2687225,52.3348018 Z M75.5682819,50.6696035 C75.5682819,51.2246696 75.9647577,51.7004405 76.5991189,51.7004405 C77.154185,51.7004405 77.5506608,51.2246696 77.5506608,50.6696035 C77.5506608,50.1145374 77.154185,49.6387665 76.5991189,49.6387665 C75.9647577,49.5594714 75.5682819,50.0352423 75.5682819,50.6696035 L75.5682819,50.6696035 Z M75.5682819,49.4008811 C75.8061674,49.0837004 76.2026432,48.845815 76.5991189,48.845815 C77.6299559,48.845815 78.3436123,49.6387665 78.3436123,50.5903084 C78.3436123,51.5418502 77.6299559,52.3348018 76.5991189,52.3348018 C76.2026432,52.3348018 75.8061674,52.0969163 75.5682819,51.7797357 L75.5682819,53.9207048 L74.7753304,53.9207048 L74.7753304,48.845815 L75.5682819,48.845815 L75.5682819,49.4008811 L75.5682819,49.4008811 Z M80.0088106,50.6696035 C80.0088106,51.2246696 80.4052863,51.7004405 81.0396476,51.7004405 C81.5947137,51.7004405 81.9911894,51.2246696 81.9911894,50.6696035 C81.9911894,50.1145374 81.5947137,49.6387665 81.0396476,49.6387665 C80.4052863,49.5594714 80.0088106,50.0352423 80.0088106,50.6696035 Z M80.0088106,49.4008811 C80.246696,49.0837004 80.6431718,48.845815 81.0396476,48.845815 C82.0704846,48.845815 82.784141,49.6387665 82.784141,50.5903084 C82.784141,51.5418502 82.0704846,52.3348018 81.0396476,52.3348018 C80.6431718,52.3348018 80.246696,52.0969163 80.0088106,51.7797357 L80.0088106,53.9207048 L79.215859,53.9207048 L79.215859,48.845815 L80.0088106,48.845815 L80.0088106,49.4008811 Z M83.6563877,52.3348018 L84.4493392,52.3348018 L84.4493392,47.2599119 L83.6563877,47.2599119 L83.6563877,52.3348018 Z M85.5594714,52.3348018 L86.3524229,52.3348018 L86.3524229,49.0044053 L85.5594714,49.0044053 L85.5594714,52.3348018 Z M85.9559471,47.1806167 C86.2731278,47.1806167 86.5110132,47.4185022 86.5903084,47.7356828 C86.5903084,48.0528634 86.3524229,48.2907489 86.0352423,48.3700441 C86.0352423,48.3700441 86.0352423,48.3700441 85.9559471,48.3700441 C85.6387665,48.3700441 85.4008811,48.1321586 85.4008811,47.814978 C85.3215859,47.4185022 85.6387665,47.1806167 85.9559471,47.1806167 C85.9559471,47.1806167 85.9559471,47.1806167 85.9559471,47.1806167 L85.9559471,47.1806167 Z M88.0176211,50.2731278 L89.6828194,50.2731278 C89.6828194,49.7973568 89.3656388,49.4801762 88.8898678,49.4801762 C88.3348018,49.4801762 88.0176211,49.7180617 88.0176211,50.2731278 L88.0176211,50.2731278 Z M88.0176211,50.907489 C88.0176211,51.3832599 88.2555066,51.7797357 88.8898678,51.7797357 C89.3656388,51.7797357 89.5242291,51.5418502 89.6035242,51.3039648 L90.3964758,51.3039648 C90.3171806,51.8590308 89.7621145,52.4140969 88.8898678,52.4140969 C87.7797357,52.4140969 87.2246696,51.6211454 87.2246696,50.6696035 C87.2246696,49.6387665 87.8590308,48.9251101 88.8898678,48.9251101 C89.7621145,48.9251101 90.4757709,49.5594714 90.4757709,50.4317181 C90.4757709,50.5110132 90.4757709,50.6696035 90.4757709,50.907489 C90.3964758,50.907489 88.0176211,50.907489 88.0176211,50.907489 Z M93.8854626,50.6696035 C93.8854626,50.1145374 93.4889868,49.6387665 92.8546256,49.6387665 C92.2995595,49.6387665 91.9030837,50.1145374 91.9030837,50.6696035 C91.9030837,51.2246696 92.2995595,51.7004405 92.8546256,51.7004405 C93.4889868,51.7004405 93.8854626,51.2246696 93.8854626,50.6696035 L93.8854626,50.6696035 Z M93.8854626,51.8590308 C93.6475771,52.1762115 93.2511013,52.4140969 92.8546256,52.4140969 C91.8237885,52.4140969 91.1101322,51.6211454 91.1101322,50.6696035 C91.1101322,49.7180617 91.8237885,48.9251101 92.8546256,48.9251101 C93.2511013,48.9251101 93.6475771,49.1629956 93.8854626,49.4801762 L93.8854626,47.339207 L94.6784141,47.339207 L94.6784141,52.3348018 L93.8854626,52.3348018 L93.8854626,51.8590308 L93.8854626,51.8590308 Z M98.8810573,48.6079295 L98.1674009,50.907489 L99.5947137,50.907489 L98.8810573,48.6079295 Z M100.070485,52.3348018 L99.8325991,51.7004405 L97.9295154,51.7004405 L97.69163,52.3348018 L96.8193833,52.3348018 L98.5638767,47.2599119 L99.1189427,47.2599119 L100.863436,52.3348018 C100.942731,52.3348018 100.070485,52.3348018 100.070485,52.3348018 Z M103.718062,49.7180617 C103.638767,49.7180617 103.480176,49.7180617 103.400881,49.7180617 C102.76652,49.7180617 102.370044,50.1145374 102.370044,50.907489 L102.370044,52.3348018 L101.577093,52.3348018 L101.577093,49.0044053 L102.370044,49.0044053 L102.370044,49.5594714 C102.528634,49.2422907 102.92511,49.0044053 103.400881,49.0044053 C103.559471,49.0044053 103.638767,49.0044053 103.718062,49.0837004 C103.718062,48.9251101 103.718062,49.7180617 103.718062,49.7180617 Z M106.493392,52.3348018 C106.334802,52.3348018 106.096916,52.4140969 105.938326,52.4140969 C105.54185,52.4140969 104.828194,52.3348018 104.828194,51.2246696 L104.828194,49.6387665 L104.273128,49.6387665 L104.273128,49.0044053 L104.828194,49.0044053 L104.828194,47.9735683 L105.621145,47.9735683 L105.621145,49.0044053 L106.414097,49.0044053 L106.414097,49.6387665 L105.621145,49.6387665 L105.621145,50.9867841 C105.621145,51.5418502 105.779736,51.6211454 106.096916,51.6211454 C106.255507,51.6211454 106.414097,51.6211454 106.493392,51.6211454 L106.493392,52.3348018 L106.493392,52.3348018 Z M109.744493,51.3832599 C109.744493,52.0969163 109.110132,52.4140969 108.396476,52.4140969 C107.682819,52.4140969 107.048458,52.0176211 107.048458,51.2246696 L107.84141,51.2246696 C107.84141,51.7004405 108.079295,51.8590308 108.475771,51.8590308 C108.792952,51.8590308 109.030837,51.7797357 109.030837,51.4625551 C109.030837,51.1453744 108.713656,51.1453744 108,50.8281938 C107.524229,50.6696035 107.207048,50.5110132 107.207048,49.876652 C107.207048,49.2422907 107.762115,48.9251101 108.475771,48.9251101 C109.189427,48.9251101 109.744493,49.4008811 109.744493,50.0352423 L108.951542,50.0352423 C108.951542,49.7180617 108.792952,49.4801762 108.396476,49.4801762 C108.15859,49.4801762 107.920705,49.6387665 107.920705,49.876652 C107.920705,50.1938326 108.237885,50.1938326 108.872247,50.4317181 C109.268722,50.5903084 109.744493,50.7488987 109.744493,51.3832599 M8.96035242,11.0220264 C8.96035242,9.27753304 7.77092511,8.24669604 6.02643172,8.24669604 C4.36123348,8.24669604 3.01321586,9.19823789 3.01321586,11.0220264 L8.96035242,11.0220264 L8.96035242,11.0220264 Z M6.02643172,5.86784141 C9.19823789,5.86784141 11.7356828,8.24669604 11.7356828,11.339207 C11.7356828,11.7356828 11.7356828,12.2907489 11.5770925,13.1629956 L2.9339207,13.1629956 C2.9339207,14.907489 3.88546256,16.3348018 6.10572687,16.3348018 C7.77092511,16.3348018 8.32599119,15.6211454 8.72246696,14.7488987 L11.5770925,14.7488987 C11.1806167,16.8105727 9.27753304,18.7136564 6.10572687,18.7136564 C1.98237885,18.7136564 0,15.6211454 0,12.2907489 C0,8.64317181 2.14096916,5.86784141 6.02643172,5.86784141 L6.02643172,5.86784141 Z M14.1938326,18.3964758 L17.0484581,18.3964758 L17.0484581,6.18502203 L14.1938326,6.18502203 L14.1938326,18.3964758 L14.1938326,18.3964758 Z M15.6211454,0 C16.6519824,0 17.5242291,0.872246696 17.5242291,1.9030837 C17.5242291,1.9030837 17.5242291,1.9030837 17.5242291,1.9030837 C17.5242291,2.9339207 16.6519824,3.8061674 15.6211454,3.8061674 C14.5903084,3.8061674 13.7180617,2.9339207 13.7180617,1.9030837 C13.7180617,0.872246696 14.5903084,0 15.6211454,0 Z M20.1409692,18.3964758 L20.1409692,0.0792951542 L22.9955947,0.0792951542 L22.9955947,11.6563877 L27.5154185,6.26431718 L31.0837004,6.26431718 L26.0088106,12.3700441 L31.0837004,18.4757709 L27.5154185,18.4757709 L22.9955947,13.0044053 L22.9955947,18.3964758 L20.1409692,18.3964758 Z" id="Shape" fill="#FFFFFF" mask="url(#mask-2)"></path>
                        </g>
                        <g id="Clipped">
                            <mask id="mask-4" fill="white">
                                <use xlink:href="#path-3"></use>
                            </mask>
                            <g id="a_00000004535504557588586520000013004947313631421624_"></g>
                            <path d="M37.3480176,16.1762115 C39.4889868,16.1762115 40.9955947,14.3524229 40.9955947,12.2907489 C40.9955947,10.2290749 39.5682819,8.40528634 37.3480176,8.40528634 C35.2070485,8.40528634 33.7797357,10.2290749 33.7797357,12.2907489 C33.7797357,14.4317181 35.2070485,16.1762115 37.3480176,16.1762115 M37.3480176,5.86784141 C41.2334802,5.86784141 43.8502203,8.80176211 43.8502203,12.2907489 C43.8502203,15.7797357 41.3127753,18.7136564 37.3480176,18.7136564 C33.4625551,18.7136564 30.9251101,15.7797357 30.9251101,12.2907489 C30.9251101,8.88105727 33.4625551,5.86784141 37.3480176,5.86784141 M45.9118943,18.3964758 L45.9118943,6.18502203 L48.7665198,6.18502203 L48.7665198,7.92951542 C49.5594714,6.5814978 50.907489,5.86784141 52.7312775,5.86784141 C54.4757709,5.86784141 55.6651982,6.50220264 56.3788546,7.53303965 C57.0132159,8.4845815 57.1718062,9.43612335 57.1718062,11.1806167 L57.1718062,18.4757709 L54.3171806,18.4757709 L54.3171806,12.1321586 C54.3171806,10.0704846 53.6828194,8.40528634 51.7004405,8.40528634 C49.7180617,8.40528634 48.7665198,9.99118943 48.7665198,12.1321586 L48.7665198,18.4757709 C48.845815,18.3964758 45.9118943,18.3964758 45.9118943,18.3964758 Z M25.1365639,20.3788546 L0.396475771,20.3788546 L0.396475771,21.7268722 L25.69163,21.7268722 L25.1365639,20.3788546 Z M26.9603524,20.3788546 L27.5947137,21.7268722 L57.5682819,21.7268722 L57.5682819,20.3788546 L26.9603524,20.3788546 Z" id="Shape" fill="#FFFFFF" mask="url(#mask-4)"></path>
                        </g>
                    </g>
                </g>
            </g>
        </g>
    </g>
</svg>