<?xml version="1.0" encoding="UTF-8"?>
<svg width="64px" height="63px" viewBox="0 0 64 63" version="1.1" xmlns="http://www.w3.org/2000/svg" xmlns:xlink="http://www.w3.org/1999/xlink">
    <title>etat_de_fribourg</title>
    <g id="Page-1" stroke="none" stroke-width="1" fill="none" fill-rule="evenodd">
        <g id="Artboard" transform="translate(-454.000000, -4950.000000)" fill="#FFFFFF" fill-rule="nonzero">
            <g id="Footer" transform="translate(0.000000, 4694.489379)">
                <g id="Partenaires" transform="translate(164.540200, 256.000000)">
                    <g id="etat_de_fribourg" transform="translate(289.812242, 0.000000)">
                        <path d="M0.340169001,29.5989027 L0.340169001,30.8745364 C4.08202801,29.9390717 8.07901377,27.6429309 10.2901123,25.6019169 C11.7358305,24.2412409 13.0114643,22.6254382 14.0319713,20.7545087 C14.0319713,20.7545087 14.1170135,20.6694664 14.1170135,20.5844242 C15.0524783,18.8835792 15.7328163,16.8425652 16.2430698,14.4613821 C17.6037458,7.91312888 15.5627318,1.36487562 15.1375205,0.514453118 C14.627267,-0.0808426329 13.946929,0.00419961729 13.4366755,0.00419961729 C13.3516333,0.00419961729 13.1815488,0.00419961729 13.0965065,0.00419961729 L0.340169001,0.00419961729 L0.340169001,14.9716356 L10.1200278,14.9716356 C10.20507,14.9716356 10.3751545,14.9716356 10.3751545,14.9716356 C10.7153235,15.0566779 10.9704503,15.2267624 10.9704503,15.5669314 C10.9704503,15.6519737 10.9704503,15.7370159 10.9704503,15.8220582 C10.9704503,18.7985369 9.52473202,24.6664522 1.10554925,28.4083112 L0.340169001,28.7484802 L0.340169001,29.5989027 Z" id="Path"></path>
                        <g id="Group" transform="translate(0.000000, 37.933043)">
                            <polygon id="Path" points="0.340169001 0.0850422502 3.65681676 0.0850422502 3.65681676 0.595295751 1.020507 0.595295751 1.020507 2.12605625 3.48673226 2.12605625 3.48673226 2.63630976 1.020507 2.63630976 1.020507 4.25211251 3.65681676 4.25211251 3.65681676 4.76236601 0.340169001 4.76236601"></polygon>
                            <polygon id="Path" points="5.61278851 0.595295751 4.08202801 0.595295751 4.08202801 0.0850422502 7.90892927 0.0850422502 7.90892927 0.595295751 6.29312651 0.595295751 6.29312651 4.84740826 5.61278851 4.84740826"></polygon>
                            <path d="M9.18456302,0.0850422502 L9.86490102,0.0850422502 L11.7358305,4.84740826 L11.0554925,4.84740826 L10.545239,3.40169001 L8.50422502,3.40169001 L7.99397152,4.84740826 L7.31363352,4.84740826 L9.18456302,0.0850422502 Z M8.67430952,2.89143651 L10.2901123,2.89143651 L9.52473202,0.680338001 L9.52473202,0.680338001 L8.67430952,2.89143651 Z" id="Shape"></path>
                            <polygon id="Path" points="12.8413798 0.595295751 11.225577 0.595295751 11.225577 0.0850422502 15.0524783 0.0850422502 15.0524783 0.595295751 13.4366755 0.595295751 13.4366755 4.84740826 12.8413798 4.84740826"></polygon>
                            <path d="M17.688788,0.0850422502 L19.3045908,0.0850422502 C20.750309,0.0850422502 21.6007315,0.850422502 21.6007315,2.38118301 C21.6007315,3.99698576 20.9203935,4.84740826 19.3045908,4.84740826 L17.688788,4.84740826 L17.688788,0.0850422502 Z M18.2840838,4.33715476 L19.3045908,4.33715476 C19.729802,4.33715476 20.9203935,4.25211251 20.9203935,2.46622526 C20.9203935,1.360676 20.4951823,0.680338001 19.3045908,0.680338001 L18.1990415,0.680338001 L18.1990415,4.33715476 L18.2840838,4.33715476 Z" id="Shape"></path>
                            <polygon id="Path" points="22.451154 0.0850422502 25.7678018 0.0850422502 25.7678018 0.595295751 23.131492 0.595295751 23.131492 2.12605625 25.5977173 2.12605625 25.5977173 2.63630976 23.131492 2.63630976 23.131492 4.25211251 25.7678018 4.25211251 25.7678018 4.76236601 22.451154 4.76236601 22.451154 0.0850422502"></polygon>
                            <polygon id="Path" points="28.6592383 0.0850422502 31.8058016 0.0850422502 31.8058016 0.595295751 29.3395763 0.595295751 29.3395763 2.12605625 31.5506748 2.12605625 31.5506748 2.63630976 29.3395763 2.63630976 29.3395763 4.84740826 28.7442806 4.84740826 28.7442806 0.0850422502"></polygon>
                            <path d="M32.5711818,0.0850422502 L34.7822803,0.0850422502 C35.6327028,0.0850422502 36.2279986,0.595295751 36.2279986,1.360676 C36.2279986,1.95597175 35.9728718,2.38118301 35.3775761,2.55126751 L35.3775761,2.55126751 C35.9728718,2.63630976 36.0579141,3.06152101 36.0579141,3.57177451 C36.0579141,3.99698576 36.0579141,4.59228151 36.3130408,4.84740826 L35.6327028,4.84740826 C35.4626183,4.67732376 35.5476606,4.16707026 35.4626183,3.65681676 C35.3775761,3.23160551 35.2925338,2.80639426 34.6972381,2.80639426 L33.2515198,2.80639426 L33.2515198,4.84740826 L32.6562241,4.84740826 L32.6562241,0.0850422502 L32.5711818,0.0850422502 Z M34.5271536,2.29614075 C35.1224493,2.29614075 35.6327028,2.12605625 35.6327028,1.44571825 C35.6327028,1.020507 35.3775761,0.595295751 34.7822803,0.595295751 L33.2515198,0.595295751 L33.2515198,2.2110985 L34.5271536,2.2110985 L34.5271536,2.29614075 Z" id="Shape"></path>
                            <polygon id="Path" points="37.3335478 0.0850422502 37.9288436 0.0850422502 37.9288436 4.84740826 37.3335478 4.84740826"></polygon>
                            <path d="M39.1194351,0.0850422502 L40.8202801,0.0850422502 C41.2454913,0.0850422502 41.7557448,0.0850422502 42.0959138,0.255126751 C42.4360828,0.425211251 42.6912096,0.765380252 42.6912096,1.27563375 C42.6912096,1.78588725 42.4360828,2.12605625 42.0108716,2.38118301 L42.0108716,2.38118301 C42.6061673,2.46622526 42.9463363,2.97647876 42.9463363,3.48673226 C42.9463363,4.16707026 42.4360828,4.84740826 41.5006181,4.84740826 L39.2044773,4.84740826 L39.2044773,0.0850422502 L39.1194351,0.0850422502 Z M39.7997731,2.12605625 L41.0754068,2.12605625 C41.7557448,2.12605625 42.0959138,1.8709295 42.0959138,1.360676 C42.0959138,0.680338001 41.6707026,0.595295751 41.0754068,0.595295751 L39.7997731,0.595295751 L39.7997731,2.12605625 Z M39.7997731,4.33715476 L41.4155758,4.33715476 C41.9258293,4.33715476 42.2659983,3.99698576 42.2659983,3.48673226 C42.2659983,2.89143651 41.7557448,2.72135201 41.2454913,2.72135201 L39.7997731,2.72135201 L39.7997731,4.33715476 L39.7997731,4.33715476 Z" id="Shape"></path>
                            <path d="M45.8377728,0 C47.3685334,0 48.1339136,1.1905915 48.1339136,2.46622526 C48.1339136,3.74185901 47.3685334,4.93245051 45.8377728,4.93245051 C44.3070123,4.93245051 43.5416321,3.74185901 43.5416321,2.46622526 C43.5416321,1.1905915 44.3070123,0 45.8377728,0 Z M45.8377728,4.42219701 C47.0283644,4.42219701 47.4535756,3.40169001 47.4535756,2.46622526 C47.4535756,1.5307605 46.9433221,0.510253501 45.8377728,0.510253501 C44.6471813,0.510253501 44.2219701,1.5307605 44.2219701,2.46622526 C44.2219701,3.40169001 44.6471813,4.42219701 45.8377728,4.42219701 Z" id="Shape"></path>
                            <path d="M52.8112374,3.14656326 C52.8112374,4.33715476 52.1308994,5.01749276 50.9403079,5.01749276 C49.7497164,5.01749276 48.9843361,4.42219701 48.9843361,3.14656326 L48.9843361,0.0850422502 L49.5796319,0.0850422502 L49.5796319,3.14656326 C49.5796319,3.99698576 50.0898854,4.42219701 50.8552656,4.42219701 C51.6206459,4.42219701 52.1308994,3.99698576 52.1308994,3.14656326 L52.1308994,0.0850422502 L52.8112374,0.0850422502 L52.8112374,3.14656326 Z" id="Path"></path>
                            <path d="M53.9167866,0.0850422502 L56.2129274,0.0850422502 C57.0633499,0.0850422502 57.6586456,0.595295751 57.6586456,1.360676 C57.6586456,1.95597175 57.4035189,2.38118301 56.8082231,2.55126751 L56.8082231,2.55126751 C57.4035189,2.63630976 57.4885611,3.06152101 57.4885611,3.57177451 C57.4885611,3.99698576 57.4885611,4.59228151 57.7436879,4.84740826 L57.0633499,4.84740826 C56.8932654,4.67732376 56.9783076,4.16707026 56.8932654,3.65681676 C56.8082231,3.23160551 56.7231809,2.80639426 56.1278851,2.80639426 L54.5971246,2.80639426 L54.5971246,4.84740826 L54.0018289,4.84740826 L54.0018289,0.0850422502 L53.9167866,0.0850422502 Z M55.8727584,2.29614075 C56.4680541,2.29614075 56.9783076,2.12605625 56.9783076,1.44571825 C56.9783076,1.020507 56.7231809,0.595295751 56.1278851,0.595295751 L54.5971246,0.595295751 L54.5971246,2.2110985 L55.8727584,2.2110985 L55.8727584,2.29614075 Z" id="Shape"></path>
                            <path d="M62.1658849,4.25211251 C61.8257159,4.76236601 61.2304201,4.93245051 60.6351244,4.93245051 C59.1894061,4.93245051 58.3389836,3.74185901 58.3389836,2.55126751 C58.3389836,1.1905915 59.1043639,0 60.6351244,0 C61.6556314,0 62.5060539,0.425211251 62.6761384,1.61580275 L62.0808426,1.61580275 C61.9958004,0.935464752 61.4005046,0.595295751 60.6351244,0.595295751 C59.4445329,0.595295751 59.0193216,1.61580275 59.0193216,2.63630976 C59.0193216,3.65681676 59.6146174,4.50723926 60.6351244,4.50723926 C61.6556314,4.50723926 62.1658849,3.82690126 62.1658849,2.97647876 L60.6351244,2.97647876 L60.6351244,2.46622526 L62.6761384,2.46622526 L62.6761384,4.93245051 L62.2509271,4.93245051 L62.1658849,4.25211251 Z" id="Path"></path>
                            <path d="M3.06152101,10.9704503 C2.97647876,10.2901123 2.55126751,10.0349855 1.8709295,10.0349855 C1.360676,10.0349855 0.765380252,10.20507 0.765380252,10.885408 C0.765380252,11.4807038 1.5307605,11.565746 2.29614075,11.7358305 C3.06152101,11.905915 3.82690126,12.1610418 3.82690126,13.0965065 C3.82690126,14.1170135 2.80639426,14.5422248 1.95597175,14.5422248 C0.850422502,14.5422248 0,14.0319713 0,12.8413798 L0.595295751,12.8413798 C0.595295751,13.60676 1.27563375,13.946929 1.95597175,13.946929 C2.55126751,13.946929 3.14656326,13.7768445 3.14656326,13.0965065 C3.14656326,12.4161685 2.38118301,12.3311263 1.61580275,12.1610418 C0.850422502,11.9909573 0.0850422502,11.7358305 0.0850422502,10.885408 C0.0850422502,9.94994327 0.935464752,9.52473202 1.78588725,9.52473202 C2.72135201,9.52473202 3.48673226,9.94994327 3.57177451,11.0554925 L3.06152101,11.0554925 L3.06152101,10.9704503 Z" id="Path"></path>
                            <polygon id="Path" points="5.61278851 10.1200278 3.99698576 10.1200278 3.99698576 9.60977427 7.82388702 9.60977427 7.82388702 10.1200278 6.20808426 10.1200278 6.20808426 14.3721403 5.61278851 14.3721403"></polygon>
                            <path d="M9.18456302,9.60977427 L9.86490102,9.60977427 L11.7358305,14.3721403 L11.0554925,14.3721403 L10.545239,12.926422 L8.50422502,12.926422 L7.99397152,14.3721403 L7.31363352,14.3721403 L9.18456302,9.60977427 Z M8.67430952,12.4161685 L10.2901123,12.4161685 L9.52473202,10.20507 L9.52473202,10.20507 L8.67430952,12.4161685 Z" id="Shape"></path>
                            <path d="M13.60676,9.60977427 L14.287098,9.60977427 L16.1580275,14.3721403 L15.4776895,14.3721403 L14.967436,12.926422 L12.926422,12.926422 L12.4161685,14.3721403 L11.7358305,14.3721403 L13.60676,9.60977427 Z M13.0965065,12.4161685 L14.7123093,12.4161685 L13.946929,10.20507 L13.946929,10.20507 L13.0965065,12.4161685 Z" id="Shape"></path>
                            <polygon id="Path" points="17.2635768 10.1200278 15.647774 10.1200278 15.647774 9.60977427 19.4746753 9.60977427 19.4746753 10.1200278 17.8588725 10.1200278 17.8588725 14.3721403 17.2635768 14.3721403 17.2635768 10.1200278"></polygon>
                            <polygon id="Path" points="22.110985 9.60977427 25.2575483 9.60977427 25.2575483 10.1200278 22.791323 10.1200278 22.791323 11.6507883 25.0024216 11.6507883 25.0024216 12.1610418 22.791323 12.1610418 22.791323 14.3721403 22.1960273 14.3721403 22.1960273 9.60977427"></polygon>
                            <path d="M26.0229286,9.60977427 L28.2340271,9.60977427 C29.0844496,9.60977427 29.6797453,10.1200278 29.6797453,10.885408 C29.6797453,11.4807038 29.4246186,11.905915 28.8293228,12.0759995 L28.8293228,12.0759995 C29.3395763,12.1610418 29.5096608,12.586253 29.5096608,13.0965065 C29.5096608,13.5217178 29.5096608,14.1170135 29.7647876,14.3721403 L29.0844496,14.3721403 C28.9143651,14.2020558 28.9994073,13.6918023 28.9143651,13.1815488 C28.8293228,12.7563375 28.7442806,12.3311263 28.1489848,12.3311263 L26.6182243,12.3311263 L26.6182243,14.3721403 L26.0229286,14.3721403 L26.0229286,9.60977427 Z M27.9789003,11.8208728 C28.5741961,11.8208728 29.0844496,11.6507883 29.0844496,10.9704503 C29.0844496,10.545239 28.8293228,10.1200278 28.2340271,10.1200278 L26.7032666,10.1200278 L26.7032666,11.7358305 L27.9789003,11.7358305 L27.9789003,11.8208728 Z" id="Shape"></path>
                            <polygon id="Path" points="30.7002523 9.60977427 34.0169001 9.60977427 34.0169001 10.1200278 31.3805903 10.1200278 31.3805903 11.6507883 33.8468156 11.6507883 33.8468156 12.1610418 31.3805903 12.1610418 31.3805903 13.7768445 34.0169001 13.7768445 34.0169001 14.287098 30.7002523 14.287098"></polygon>
                            <polygon id="Path" points="34.9523648 9.60977427 35.5476606 9.60977427 35.5476606 14.3721403 34.9523648 14.3721403"></polygon>
                            <path d="M36.7382521,9.60977427 L38.4390971,9.60977427 C38.8643083,9.60977427 39.3745618,9.60977427 39.7147308,9.77985877 C40.0548998,9.94994327 40.3100266,10.2901123 40.3100266,10.8003658 C40.3100266,11.3106193 40.0548998,11.6507883 39.6296886,11.905915 L39.6296886,11.905915 C40.2249843,11.9909573 40.5651533,12.5012108 40.5651533,13.0114643 C40.5651533,13.6918023 40.0548998,14.3721403 39.1194351,14.3721403 L36.8232943,14.3721403 L36.8232943,9.60977427 L36.7382521,9.60977427 Z M37.4185901,11.6507883 L38.6942238,11.6507883 C39.3745618,11.6507883 39.7147308,11.3956615 39.7147308,10.885408 C39.7147308,10.20507 39.2895196,10.1200278 38.6942238,10.1200278 L37.4185901,10.1200278 L37.4185901,11.6507883 Z M37.4185901,13.8618868 L39.0343928,13.8618868 C39.5446463,13.8618868 39.8848153,13.5217178 39.8848153,13.0114643 C39.8848153,12.4161685 39.3745618,12.246084 38.8643083,12.246084 L37.4185901,12.246084 L37.4185901,13.8618868 L37.4185901,13.8618868 Z" id="Shape"></path>
                            <path d="M45.2424771,12.6712953 C45.2424771,13.8618868 44.5621391,14.5422248 43.3715476,14.5422248 C42.1809561,14.5422248 41.4155758,13.946929 41.4155758,12.6712953 L41.4155758,9.60977427 L42.0108716,9.60977427 L42.0108716,12.6712953 C42.0108716,13.5217178 42.5211251,13.946929 43.2865053,13.946929 C44.0518856,13.946929 44.5621391,13.5217178 44.5621391,12.6712953 L44.5621391,9.60977427 L45.1574348,9.60977427 L45.1574348,12.6712953 L45.2424771,12.6712953 Z" id="Path"></path>
                            <path d="M46.3480263,9.60977427 L48.5591249,9.60977427 C49.4095474,9.60977427 50.0048431,10.1200278 50.0048431,10.885408 C50.0048431,11.4807038 49.7497164,11.905915 49.1544206,12.0759995 L49.1544206,12.0759995 C49.6646741,12.1610418 49.8347586,12.586253 49.8347586,13.0965065 C49.8347586,13.5217178 49.8347586,14.1170135 50.0898854,14.3721403 L49.4095474,14.3721403 C49.2394629,14.2020558 49.3245051,13.6918023 49.2394629,13.1815488 C49.1544206,12.7563375 49.0693784,12.3311263 48.4740826,12.3311263 L46.9433221,12.3311263 L46.9433221,14.3721403 L46.3480263,14.3721403 L46.3480263,9.60977427 Z M48.3039981,11.8208728 C48.8992939,11.8208728 49.4095474,11.6507883 49.4095474,10.9704503 C49.4095474,10.545239 49.1544206,10.1200278 48.5591249,10.1200278 L47.0283644,10.1200278 L47.0283644,11.7358305 L48.3039981,11.7358305 L48.3039981,11.8208728 Z" id="Shape"></path>
                            <path d="M54.5971246,13.7768445 C54.2569556,14.287098 53.6616599,14.4571825 53.0663641,14.4571825 C51.6206459,14.4571825 50.7702234,13.266591 50.7702234,12.0759995 C50.7702234,10.7153235 51.5356036,9.52473202 53.0663641,9.52473202 C54.0868711,9.52473202 54.9372936,9.94994327 55.1073781,11.1405348 L54.5120824,11.1405348 C54.4270401,10.4601968 53.8317444,10.1200278 53.0663641,10.1200278 C51.8757726,10.1200278 51.4505614,11.1405348 51.4505614,12.1610418 C51.4505614,13.1815488 52.0458571,14.0319713 53.0663641,14.0319713 C54.0868711,14.0319713 54.5971246,13.3516333 54.5971246,12.5012108 L53.0663641,12.5012108 L53.0663641,11.9909573 L55.1073781,11.9909573 L55.1073781,14.4571825 L54.6821669,14.4571825 L54.5971246,13.7768445 Z" id="Path"></path>
                            <polygon id="Path" points="3.31664776 23.8968723 2.89143651 23.8968723 2.12605625 21.1755203 2.12605625 21.1755203 1.360676 23.8968723 0.935464752 23.8968723 0.0850422502 20.6652668 0.510253501 20.6652668 1.1905915 23.3015765 1.1905915 23.3015765 1.95597175 20.5802245 2.46622526 20.5802245 3.06152101 23.3015765 3.06152101 23.3015765 3.74185901 20.5802245 4.16707026 20.5802245"></polygon>
                            <polygon id="Path" points="7.65380252 23.8968723 7.22859127 23.8968723 6.46321101 21.1755203 6.46321101 21.1755203 5.69783076 23.8968723 5.27261951 23.8968723 4.42219701 20.6652668 4.84740826 20.6652668 5.52774626 23.3015765 5.52774626 23.3015765 6.29312651 20.5802245 6.80338001 20.5802245 7.39867577 23.3015765 7.39867577 23.3015765 8.07901377 20.5802245 8.50422502 20.5802245"></polygon>
                            <polygon id="Path" points="11.9909573 23.8968723 11.565746 23.8968723 10.8003658 21.1755203 10.8003658 21.1755203 10.0349855 23.8968723 9.60977427 23.8968723 8.75935177 20.6652668 9.18456302 20.6652668 9.86490102 23.3866188 9.86490102 23.3866188 10.6302813 20.6652668 11.1405348 20.6652668 11.8208728 23.3866188 11.8208728 23.3866188 12.5012108 20.6652668 12.8413798 20.6652668"></polygon>
                            <polygon id="Path" points="13.0114643 23.3866188 13.5217178 23.3866188 13.5217178 23.8968723 13.0114643 23.8968723"></polygon>
                            <polygon id="Path" points="14.3721403 20.5802245 16.4981965 20.5802245 16.4981965 20.9203935 14.7973515 20.9203935 14.7973515 21.9409005 16.328112 21.9409005 16.328112 22.2810695 14.7973515 22.2810695 14.7973515 23.8118301 14.3721403 23.8118301"></polygon>
                            <path d="M17.0934923,20.5802245 L18.6242528,20.5802245 C19.2195485,20.5802245 19.6447598,20.9203935 19.6447598,21.430647 C19.6447598,21.8558583 19.4746753,22.110985 19.049464,22.2810695 L19.049464,22.2810695 C19.389633,22.3661118 19.4746753,22.6212385 19.5597175,22.9614075 C19.5597175,23.3015765 19.5597175,23.6417456 19.729802,23.8968723 L19.2195485,23.8968723 C19.1345063,23.7267878 19.1345063,23.3866188 19.1345063,23.131492 C19.049464,22.791323 19.049464,22.5361963 18.6242528,22.5361963 L17.6037458,22.5361963 L17.6037458,23.8968723 L17.0934923,23.8968723 L17.0934923,20.5802245 Z M18.4541683,22.110985 C18.8793795,22.110985 19.2195485,22.0259428 19.2195485,21.5156893 C19.2195485,21.1755203 19.049464,20.9203935 18.6242528,20.9203935 L17.5187035,20.9203935 L17.5187035,22.0259428 L18.4541683,22.0259428 L18.4541683,22.110985 Z" id="Shape"></path>
                            <polygon id="Path" points="20.3250978 23.3866188 20.8353513 23.3866188 20.8353513 23.8968723 20.3250978 23.8968723"></polygon>
                            <path d="M23.9819146,21.6007315 C23.8968723,21.1755203 23.5567033,20.9203935 23.0464498,20.9203935 C22.2810695,20.9203935 21.9409005,21.6007315 21.9409005,22.2810695 C21.9409005,23.0464498 22.2810695,23.6417456 23.0464498,23.6417456 C23.6417456,23.6417456 23.9819146,23.2165343 23.9819146,22.7062808 L24.4071258,22.7062808 C24.3220836,23.5567033 23.8118301,23.9819146 22.9614075,23.9819146 C21.9409005,23.9819146 21.430647,23.2165343 21.430647,22.2810695 C21.430647,21.3456048 21.9409005,20.5802245 22.9614075,20.5802245 C23.6417456,20.5802245 24.2370413,20.9203935 24.3220836,21.6007315 L23.9819146,21.6007315 Z" id="Path"></path>
                            <polygon id="Path" points="25.0874638 20.5802245 25.5126751 20.5802245 25.5126751 21.9409005 27.2135201 21.9409005 27.2135201 20.5802245 27.6387313 20.5802245 27.6387313 23.8118301 27.2135201 23.8118301 27.2135201 22.2810695 25.5126751 22.2810695 25.5126751 23.8118301 25.0874638 23.8118301"></polygon>
                        </g>
                    </g>
                </g>
            </g>
        </g>
    </g>
</svg>