<?xml version="1.0" encoding="UTF-8"?>
<svg width="127px" height="45px" viewBox="0 0 127 45" version="1.1" xmlns="http://www.w3.org/2000/svg" xmlns:xlink="http://www.w3.org/1999/xlink">
    <title>fri-son</title>
    <g id="Page-1" stroke="none" stroke-width="1" fill="none" fill-rule="evenodd">
        <g id="Artboard" transform="translate(-164.000000, -5046.000000)" fill="#FFFFFF" fill-rule="nonzero">
            <g id="Footer" transform="translate(0.000000, 4694.489379)">
                <g id="Partenaires" transform="translate(164.540200, 256.000000)">
                    <g id="fri-son" transform="translate(0.000000, 95.552469)">
                        <g id="Group">
                            <path d="M85.5353714,17.1549714 C79.6884,17.1549714 74.7604,20.9138286 72.9243429,26.1253143 C71.9544571,23.3960571 70.1435429,21.0596571 67.7901714,19.4618286 C65.8566857,18.1449714 64.5762857,15.9474857 64.5762857,13.4514286 C64.5762857,9.4908 67.8373143,6.25931429 71.8268571,6.25931429 L71.8268571,0.0590857143 C64.4348571,0.0590857143 58.3861143,6.02422857 58.3861143,13.4520571 C58.3861143,18.0745714 60.7244,22.1590286 64.2733143,24.5809143 L64.2733143,24.5903429 C66.2181143,25.8933714 67.4972571,28.1059429 67.4972571,30.6089143 C67.4972571,34.5632571 64.2362286,37.7991429 60.2485714,37.7991429 C56.2810286,37.7991429 53.0577143,34.5632571 53.0577143,30.6089143 L46.8556,30.6089143 C46.8549714,37.9751429 52.8779429,44 60.2473143,44 C66.0873714,44 71.0757143,40.2675429 72.9230857,35.0441143 C74.7654286,40.2468 79.7305143,44 85.5353714,44 C92.9361714,44 98.9861714,38.0336 98.9861714,30.6070286 C98.9868,23.1817143 92.9588,17.1549714 85.5353714,17.1549714 M85.5353714,37.7985143 C81.5791429,37.7985143 78.3457714,34.562 78.3457714,30.6076571 C78.3457714,26.6174857 81.5804,23.3583429 85.5353714,23.3583429 C89.5249143,23.3583429 92.7840571,26.6193714 92.7840571,30.6076571 C92.7840571,34.5613714 89.5249143,37.7985143 85.5353714,37.7985143" id="Shape"></path>
                            <path d="M119.629714,43.4003429 L125.914171,43.4003429 L125.914171,30.6070286 C125.914171,23.1817143 119.8076,17.1537143 112.440114,17.1537143 C105.011657,17.1537143 98.9861714,23.1817143 98.9861714,30.6070286 L98.9861714,43.4141714 L105.1908,43.4141714 L105.1908,30.6070286 C105.1908,26.6526857 108.450571,23.3577143 112.440114,23.3577143 C116.393829,23.3577143 119.629714,26.6526857 119.629714,30.6070286 L119.629714,43.4003429 L119.629714,43.4003429 Z" id="Path"></path>
                            <path d="M36.2729714,16.5854857 L36.2729714,16.5854857 C32.1501714,16.5854857 28.4491429,18.4812571 25.9864,21.4374286 C23.5255429,18.4806286 19.8125714,16.5854857 15.6891429,16.5854857 L14.0228,16.5854857 L14.0228,13.3929714 C14.0228,9.43862857 17.2825714,6.204 21.2727429,6.204 L21.2727429,0 C13.8807429,0 7.82005714,5.96891429 7.82005714,13.3929714 L7.82005714,16.5854857 L0,16.5854857 L0,22.7876 L7.82005714,22.7876 L7.82005714,43.4493714 L14.0228,43.4493714 L14.0228,22.7876 L15.6891429,22.7876 C19.6548,22.7876 22.8787429,26.0134286 22.8787429,29.9784571 L22.8787429,43.4204571 L29.0833714,43.4204571 L29.0833714,29.9784571 C29.0833714,26.0128 32.3186286,22.7876 36.2729714,22.7876 L37.9418286,22.7876 L37.9418286,43.4204571 L44.1426857,43.4204571 L44.1426857,16.5854857 L36.2729714,16.5854857 Z" id="Path"></path>
                            <polygon id="Path" points="56.6977714 16.5854857 46.8266857 22.7876 46.8266857 29.1456 56.6977714 23.0987429"></polygon>
                        </g>
                        <rect id="Rectangle" x="37.9399429" y="0.0616" width="6.20085714" height="14.8544"></rect>
                    </g>
                </g>
            </g>
        </g>
    </g>
</svg>