<?xml version="1.0" encoding="UTF-8"?>
<svg width="127px" height="45px" viewBox="0 0 127 45" version="1.1" xmlns="http://www.w3.org/2000/svg" xmlns:xlink="http://www.w3.org/1999/xlink">
    <title>lotterie_romande_black</title>
    <g id="Page-1" stroke="none" stroke-width="1" fill="none" fill-rule="evenodd">
        <g id="Artboard" transform="translate(-391.000000, -5046.000000)" fill="#FFFFFF" fill-rule="nonzero">
            <g id="Footer" transform="translate(0.000000, 4694.489379)">
                <g id="Partenaires" transform="translate(164.540200, 256.000000)">
                    <g id="lotterie_romande_black" transform="translate(226.695845, 95.552469)">
                        <path d="M9.24089069,20.0182186 C9.24089069,15.1417004 13.159919,11.1558704 17.9919028,11.1558704 C22.8238866,11.1558704 26.7651822,15.1417004 26.7651822,20.0182186 C26.7651822,24.8947368 22.8238866,28.8583924 17.9919028,28.8583924 C13.1821862,28.8805668 9.24089069,24.8947368 9.24089069,20.0182186 Z M126.232794,0 L126.232794,44 L0,44 L0,0 L126.232794,0 Z M4.16396761,17.1902834 C4.16396761,24.8502024 10.354251,31.062753 18.01417,31.062753 C25.6740891,31.062753 31.8643725,24.8502024 31.8643725,17.1902834 C31.8643725,9.50809717 25.6740891,3.29554656 18.01417,3.29554656 C10.354251,3.29554656 4.16396761,9.50809717 4.16396761,17.1902834 Z M0.957489879,7.12550607 C2.38259109,4.67611336 4.34210526,2.58299595 6.63562753,0.957489879 L0.957489879,0.957489879 L0.957489879,7.12550607 Z M125.275304,0.957489879 L29.3927126,0.957489879 C34.4919028,4.54251012 37.8097166,10.465587 37.8097166,17.1902834 C37.8097166,28.145749 28.9473684,37.0303644 18.01417,37.0303644 C10.7550607,37.0303644 4.40890688,33.111336 0.957489879,27.2550607 L0.957489879,43.0425101 L125.275304,43.0425101 L125.275304,0.957489879 Z M56.1578947,8.88461538 L59.6538462,8.88461538 L59.6538462,16.2105263 L63.082996,16.2105263 L63.082996,19.194332 L56.1578947,19.194332 L56.1578947,8.88461538 L56.1578947,8.88461538 Z M64.3522267,13.9838057 C64.3522267,13.159919 64.5080972,12.402834 64.7975709,11.7348178 C65.0870445,11.0668016 65.4878543,10.5101215 66,10.0425101 C66.5121457,9.57489879 67.1133603,9.21862348 67.8259109,8.97368421 C68.5161943,8.72874494 69.2732794,8.5951417 70.097166,8.5951417 C70.9210526,8.5951417 71.6781377,8.72874494 72.3684211,8.97368421 C73.0587045,9.21862348 73.6821862,9.59716599 74.194332,10.0425101 C74.7064777,10.5101215 75.1072874,11.0668016 75.3967611,11.7348178 C75.6862348,12.402834 75.8421053,13.159919 75.8421053,13.9838057 C75.8421053,14.8076923 75.6862348,15.5647773 75.3967611,16.2550607 C75.1072874,16.9453441 74.7064777,17.5242915 74.194332,17.9919028 C73.6821862,18.4817814 73.0809717,18.8380567 72.3684211,19.1052632 C71.6781377,19.3724696 70.8987854,19.5060729 70.097166,19.5060729 C69.2732794,19.5060729 68.5161943,19.3724696 67.8259109,19.1052632 C67.1356275,18.8380567 66.5121457,18.4817814 66,17.9919028 C65.4878543,17.5020243 65.0870445,16.9230769 64.7975709,16.2550607 C64.5080972,15.5647773 64.3522267,14.8076923 64.3522267,13.9838057 Z M68.048583,13.9838057 C68.048583,14.3178138 68.0931174,14.6295547 68.2044534,14.9190283 C68.3157895,15.208502 68.4493927,15.4534413 68.6275304,15.6538462 C68.805668,15.854251 69.0283401,16.0101215 69.2732794,16.1214575 C69.5182186,16.2327935 69.8076923,16.2995951 70.097166,16.2995951 C70.3866397,16.2995951 70.6538462,16.2550607 70.8987854,16.1214575 C71.1437247,16.0101215 71.3663968,15.854251 71.5445344,15.6538462 C71.7226721,15.4534413 71.8785425,15.208502 71.9676113,14.9190283 C72.0789474,14.6295547 72.1234818,14.3178138 72.1234818,13.9838057 C72.1234818,13.6497976 72.0789474,13.3603239 71.9676113,13.0708502 C71.8562753,12.8036437 71.7226721,12.5587045 71.5445344,12.3805668 C71.3663968,12.2024291 71.1437247,12.0465587 70.8987854,11.9352227 C70.6538462,11.8238866 70.3866397,11.7793522 70.097166,11.7793522 C69.8076923,11.7793522 69.5404858,11.8238866 69.2732794,11.9352227 C69.0283401,12.0465587 68.805668,12.2024291 68.6275304,12.3805668 C68.4493927,12.5587045 68.3157895,12.8036437 68.2044534,13.0708502 C68.1153846,13.3603239 68.048583,13.6497976 68.048583,13.9838057 Z M82.9898785,19.2165992 L79.5161943,19.2165992 L79.5161943,11.8016194 L76.9777328,11.8016194 L76.9777328,8.88461538 L85.5283401,8.88461538 L85.5283401,11.8016194 L82.9898785,11.8016194 L82.9898785,19.2165992 Z M87.4433198,8.88461538 L94.5465587,8.88461538 L94.5465587,11.7793522 L90.7165992,11.7793522 L90.7165992,12.6700405 L94.3238866,12.6700405 L94.3238866,15.3643725 L90.7165992,15.3643725 L90.7165992,16.3218623 L94.8137652,16.3218623 L94.8137652,19.2165992 L87.465587,19.2165992 L87.465587,8.88461538 L87.4433198,8.88461538 Z M97.1072874,8.88461538 L101.560729,8.88461538 C102.072874,8.88461538 102.562753,8.9291498 103.074899,9.04048583 C103.587045,9.15182186 104.032389,9.32995951 104.410931,9.57489879 C104.811741,9.84210526 105.123482,10.1761134 105.368421,10.6214575 C105.61336,11.0445344 105.724696,11.6012146 105.724696,12.2469636 C105.724696,12.8704453 105.568826,13.4271255 105.257085,13.917004 C104.945344,14.4068826 104.5,14.7631579 103.921053,15.0303644 L106.548583,19.2165992 L102.562753,19.2165992 L100.580972,15.5202429 L100.469636,15.5202429 L100.469636,19.2165992 L97.1072874,19.2165992 L97.1072874,8.88461538 L97.1072874,8.88461538 Z M100.447368,13.2489879 L101.137652,13.2489879 C101.248988,13.2489879 101.382591,13.2489879 101.516194,13.2267206 C101.649798,13.2044534 101.783401,13.159919 101.917004,13.0931174 C102.02834,13.0263158 102.139676,12.937247 102.228745,12.8259109 C102.317814,12.7145749 102.362348,12.5587045 102.362348,12.3805668 C102.362348,12.2024291 102.317814,12.0465587 102.251012,11.9352227 C102.184211,11.8238866 102.095142,11.757085 101.983806,11.6902834 C101.87247,11.645749 101.761134,11.6012146 101.649798,11.5789474 C101.516194,11.5566802 101.404858,11.5566802 101.293522,11.5566802 L100.469636,11.5566802 L100.469636,13.2489879 L100.447368,13.2489879 Z M107.840081,8.88461538 L111.336032,8.88461538 L111.336032,19.2165992 L107.840081,19.2165992 L107.840081,8.88461538 Z M113.540486,8.88461538 L120.643725,8.88461538 L120.643725,11.7793522 L116.813765,11.7793522 L116.813765,12.6700405 L120.421053,12.6700405 L120.421053,15.3643725 L116.813765,15.3643725 L116.813765,16.3218623 L120.910931,16.3218623 L120.910931,19.2165992 L113.562753,19.2165992 L113.562753,8.88461538 L113.540486,8.88461538 Z M40.7044534,23.9595142 L45.1356275,23.9595142 C45.6477733,23.9595142 46.1376518,24.0040486 46.6497976,24.1153846 C47.1396761,24.2267206 47.5850202,24.4048583 47.98583,24.6497976 C48.3866397,24.917004 48.6983806,25.2510121 48.9433198,25.6963563 C49.1882591,26.1194332 49.2995951,26.6761134 49.2995951,27.3218623 C49.2995951,27.9453441 49.1437247,28.5020243 48.8319838,28.9919028 C48.5202429,29.4817814 48.0748988,29.8380567 47.4959514,30.1052632 L50.1012146,34.291498 L46.1153846,34.291498 L44.1336032,30.6174089 L44.0222672,30.6174089 L44.0222672,34.291498 L40.659919,34.291498 L40.659919,23.9595142 L40.7044534,23.9595142 Z M44.0445344,28.3016194 L44.7125506,28.3016194 C44.8238866,28.3016194 44.9574899,28.3016194 45.0910931,28.2793522 C45.2246964,28.257085 45.3582996,28.2125506 45.4696356,28.145749 C45.5809717,28.0789474 45.6923077,27.9898785 45.7813765,27.8785425 C45.8704453,27.7672065 45.8927126,27.611336 45.8927126,27.4331984 C45.8927126,27.2550607 45.8481781,27.0991903 45.7813765,26.9878543 C45.7145749,26.8765182 45.6255061,26.8097166 45.51417,26.742915 C45.402834,26.6983806 45.291498,26.6538462 45.1578947,26.6315789 C45.0242915,26.6093117 44.9129555,26.6093117 44.8016194,26.6093117 L43.9777328,26.6093117 L43.9777328,28.3016194 L44.0445344,28.3016194 Z M50.6801619,29.0587045 C50.6801619,28.2348178 50.8360324,27.5 51.1255061,26.8319838 C51.4149798,26.1639676 51.8157895,25.6072874 52.3279352,25.1396761 C52.840081,24.6720648 53.4412955,24.3157895 54.1315789,24.0708502 C54.8218623,23.8259109 55.6012146,23.6923077 56.402834,23.6923077 C57.2267206,23.6923077 57.9838057,23.8259109 58.6740891,24.0708502 C59.3643725,24.3157895 59.9878543,24.6720648 60.5,25.1396761 C61.0121457,25.6072874 61.4129555,26.1639676 61.7024291,26.8319838 C61.9919028,27.5 62.1477733,28.2348178 62.1477733,29.0587045 C62.1477733,29.8825911 61.9919028,30.6396761 61.7024291,31.3076923 C61.4129555,31.9979757 61.0121457,32.5769231 60.5,33.0445344 C59.9878543,33.534413 59.3866397,33.8906883 58.6740891,34.1578947 C57.9838057,34.4251012 57.2267206,34.5587045 56.402834,34.5587045 C55.5789474,34.5587045 54.8218623,34.4251012 54.1315789,34.1578947 C53.4412955,33.8906883 52.840081,33.534413 52.3279352,33.0445344 C51.8157895,32.5546559 51.4149798,31.9757085 51.1255061,31.3076923 C50.8137652,30.6396761 50.6801619,29.8825911 50.6801619,29.0587045 Z M54.354251,29.0587045 C54.354251,29.3927126 54.3987854,29.7044534 54.5101215,29.9939271 C54.6214575,30.2834008 54.7550607,30.5283401 54.9331984,30.7287449 C55.111336,30.9291498 55.3340081,31.0850202 55.5789474,31.1963563 C55.8238866,31.3076923 56.1133603,31.3744939 56.402834,31.3744939 C56.6923077,31.3744939 56.9595142,31.3076923 57.2044534,31.1963563 C57.4493927,31.0850202 57.6720648,30.9291498 57.8502024,30.7287449 C58.0283401,30.5283401 58.1842105,30.2834008 58.2732794,29.9939271 C58.3623482,29.7044534 58.4291498,29.3927126 58.4291498,29.0587045 C58.4291498,28.7246964 58.3846154,28.4352227 58.2732794,28.145749 C58.1619433,27.8785425 58.0283401,27.6336032 57.8502024,27.4554656 C57.6720648,27.2773279 57.4493927,27.1214575 57.2044534,27.0101215 C56.9595142,26.8987854 56.6923077,26.854251 56.402834,26.854251 C56.1133603,26.854251 55.8461538,26.8987854 55.5789474,27.0101215 C55.3340081,27.1214575 55.111336,27.2773279 54.9331984,27.4554656 C54.7550607,27.6558704 54.6214575,27.8785425 54.5101215,28.145749 C54.3987854,28.4129555 54.354251,28.7246964 54.354251,29.0587045 Z M66.6680162,28.4352227 L66.8238866,34.2692308 L63.5951417,34.2692308 L63.5951417,23.9595142 L68.1376518,23.9595142 L70.0080972,29.5040486 L70.0748988,29.5040486 L71.7004049,23.9595142 L76.3765182,23.9595142 L76.3765182,34.2692308 L72.9919028,34.2692308 L73.1032389,28.4797571 L73.01417,28.4574899 L71.0991903,34.2692308 L68.6497976,34.2692308 L66.757085,28.4352227 L66.6680162,28.4352227 L66.6680162,28.4352227 Z M81.6538462,23.9595142 L85.3279352,23.9595142 L89.3360324,34.2692308 L85.5728745,34.2692308 L85.0384615,32.7550607 L81.7651822,32.7550607 L81.2530364,34.2692308 L77.5789474,34.2692308 L81.6538462,23.9595142 Z M83.4352227,27.5445344 L82.5890688,30.1052632 L84.2591093,30.1052632 L83.4352227,27.5445344 Z M90.582996,23.9595142 L94.034413,23.9595142 L96.9736842,29.1923077 L97.0404858,29.1923077 L96.9068826,23.9595142 L100.202429,23.9595142 L100.202429,34.2692308 L96.6396761,34.2692308 L93.7894737,29.3481781 L93.7226721,29.3481781 L93.8785425,34.2692308 L90.582996,34.2692308 L90.582996,23.9595142 L90.582996,23.9595142 Z M102.095142,34.2692308 L102.095142,23.9595142 L105.947368,23.9595142 C106.771255,23.9595142 107.550607,24.048583 108.285425,24.2044534 C109.020243,24.3603239 109.688259,24.6497976 110.244939,25.0283401 C110.823887,25.4291498 111.269231,25.9412955 111.603239,26.5870445 C111.937247,27.2327935 112.115385,28.0566802 112.115385,29.0364372 C112.115385,29.9493927 111.959514,30.7287449 111.625506,31.3744939 C111.291498,32.0425101 110.868421,32.5769231 110.311741,33 C109.777328,33.4230769 109.131579,33.7348178 108.441296,33.9352227 C107.728745,34.1356275 106.993927,34.2469636 106.236842,34.2469636 L102.095142,34.2469636 L102.095142,34.2692308 Z M105.435223,26.8987854 L105.435223,31.2854251 L106.080972,31.2854251 C106.904858,31.2854251 107.52834,31.1072874 107.951417,30.7510121 C108.396761,30.3947368 108.597166,29.8157895 108.597166,29.01417 C108.597166,28.3461538 108.374494,27.8340081 107.951417,27.4554656 C107.506073,27.0769231 106.927126,26.8987854 106.192308,26.8987854 L105.435223,26.8987854 L105.435223,26.8987854 Z M113.562753,23.9595142 L120.643725,23.9595142 L120.643725,26.8319838 L116.813765,26.8319838 L116.813765,27.7226721 L120.398785,27.7226721 L120.398785,30.417004 L116.813765,30.417004 L116.813765,31.3744939 L120.910931,31.3744939 L120.910931,34.2469636 L113.562753,34.2469636 L113.562753,23.9595142 Z" id="Shape"></path>
                    </g>
                </g>
            </g>
        </g>
    </g>
</svg>